<svg width="2891" height="2891" viewBox="0 0 2891 2891" fill="none" xmlns="http://www.w3.org/2000/svg">
<path d="M1342.45 238.565C1092.03 271.032 867.3 386.785 716.539 561.543C550.814 753.242 468.94 981.924 478.257 1226.7C481.363 1302.36 488.703 1354.03 506.49 1424.89C534.44 1534.71 588.364 1647.64 655.839 1737.99C667.979 1754.08 678.99 1767.35 680.401 1767.35C683.507 1767.35 705.528 1741.94 756.064 1679.83C804.059 1621.39 820.999 1603.6 851.207 1580.17C877.464 1559.84 901.744 1546.57 942.963 1529.35C1005.07 1503.66 1029.07 1479.66 1063.23 1410.21C1091.47 1352.62 1095.7 1334.55 1098.24 1261.99C1100.5 1195.93 1102.76 1184.92 1119.42 1151.88C1124.5 1141.72 1132.68 1128.45 1137.77 1122.24C1146.52 1111.23 1146.52 1111.23 1144.26 1119.42C1138.9 1138.61 1142.85 1178.7 1149.91 1176.73C1151.88 1176.16 1163.74 1154.71 1176.73 1129.3C1198.47 1085.82 1249 1005.07 1254.65 1005.07C1255.78 1005.07 1256.06 1014.96 1255.21 1026.81C1254.37 1038.95 1252.95 1059.56 1251.83 1072.83L1250.13 1096.83L1266.79 1097.11C1286.83 1097.68 1311.96 1106.71 1321.84 1117.44C1326.08 1121.67 1332.57 1132.12 1336.81 1141.16C1343.58 1155.55 1359.11 1173.9 1373.22 1183.79C1377.74 1187.17 1378.02 1188.3 1374.64 1193.95C1370.97 1199.6 1371.53 1201.01 1379.72 1208.35C1387.62 1215.69 1388.47 1217.38 1386.21 1225.29C1379.15 1249.57 1366.17 1259.17 1326.36 1269.05C1304.9 1274.41 1296.43 1281.75 1293.89 1297C1289.66 1324.38 1308.29 1350.36 1346.69 1370.4C1382.26 1388.75 1411.9 1410.21 1435.34 1433.93L1457.64 1456.51L1479.38 1436.18C1548.83 1371.25 1620.26 1341.04 1704.96 1341.04C1792.76 1341.04 1856.28 1367.86 1900.32 1423.48C1906.25 1431.1 1911.62 1436.18 1912.46 1434.77C1913.03 1433.64 1915.29 1424.04 1916.98 1413.6C1920.93 1391.01 1917.55 1365.89 1907.1 1339.63C1903.15 1330.59 1900.61 1322.69 1900.89 1322.69C1933.07 1304.62 1940.98 1294.46 1940.7 1271.31C1940.41 1253.52 1933.92 1242.23 1924.04 1242.23C1916.13 1242.23 1914.16 1247.87 1915.01 1266.51C1915.57 1280.91 1908.51 1291.92 1897.22 1294.46C1890.44 1295.87 1885.64 1294.46 1874.63 1287.4C1858.82 1277.24 1837.93 1255.21 1837.93 1248.16C1836.8 1209.2 1832.28 1167.69 1828.33 1161.76C1823.81 1154.99 1823.25 1154.99 1815.63 1158.94C1811.11 1161.2 1802.08 1169.39 1795.58 1177.29C1783.72 1191.41 1783.16 1191.97 1771.58 1190C1765.09 1189.15 1754.08 1189.71 1747.3 1191.13L1734.88 1193.95L1722.74 1179.83C1711.45 1167.13 1698.18 1157.53 1691.69 1157.53C1684.91 1157.53 1681.81 1175.32 1683.5 1204.96C1684.63 1227.83 1684.06 1238.84 1680.68 1250.41C1675.31 1269.05 1678.7 1288.25 1689.99 1306.03L1697.05 1317.04L1685.76 1304.9C1671.64 1289.66 1665.71 1272.44 1663.74 1241.94C1661.2 1203.27 1671.36 1171.36 1693.95 1146.24C1735.45 1100.5 1754.08 1059.85 1754.08 1017.5C1753.8 979.666 1741.09 969.22 1713.71 984.747C1681.52 1003.38 1656.68 1014.11 1642.56 1016.09C1624.21 1018.34 1597.96 1015.24 1586.38 1009.31C1573.68 1002.53 1556.74 986.441 1552.78 976.842C1549.68 969.22 1549.96 967.808 1558.15 958.491C1562.95 952.845 1566.9 946.069 1566.9 942.963C1566.9 936.752 1558.99 931.671 1549.4 931.671C1543.18 931.388 1543.47 930.824 1553.07 922.354C1558.43 917.554 1569.16 908.52 1576.5 902.309C1601.34 882.264 1604.45 871.535 1596.26 836.527C1586.94 795.872 1602.47 754.935 1642.84 715.692C1695.36 664.309 1765.66 649.629 1822.4 678.143C1828.61 681.531 1850.92 697.624 1871.81 714.281C1892.7 730.656 1917.83 749.854 1927.71 756.347C1960.74 778.651 1962.72 790.508 1942.39 842.456C1924.89 886.781 1892.98 935.341 1854.87 975.431C1833.13 998.017 1829.74 1005.07 1836.24 1014.96C1842.73 1024.84 1856.56 1024.27 1870.68 1013.83C1896.09 995.193 1938.16 945.222 1952.84 916.425C1959.61 903.156 1960.18 902.591 1964.13 907.955C1974.29 921.789 2011 998.864 2022.57 1031.33C2078.47 1185.76 2073.11 1348.1 2008.17 1470.35C1983.61 1516.65 1939.85 1569.72 1923.19 1573.96C1910.49 1577.06 1823.53 1610.94 1762.55 1636.35C1731.21 1649.34 1692.25 1664.58 1676.16 1669.95L1646.51 1679.83H1586.94C1554.19 1679.83 1527.37 1678.98 1527.37 1677.57C1527.37 1676.44 1539.8 1668.25 1555.04 1659.22C1618 1621.67 1672.21 1576.5 1684.35 1551.37C1691.69 1536.13 1691.69 1507.33 1684.35 1492.93C1676.44 1476.84 1658.65 1460.46 1640.87 1453.41C1627.03 1447.76 1619.69 1446.91 1590.9 1446.91C1562.95 1446.91 1553.91 1448.04 1538.67 1453.69C1512.98 1462.72 1451.15 1492.65 1418.96 1511.56C1376.05 1536.97 1336.81 1554.76 1313.65 1560.12C1278.36 1568.03 1236.58 1564.64 1185.76 1549.96C1147.93 1538.95 1141.72 1537.82 1103.89 1536.69C1066.9 1535.56 1060.13 1536.13 1035.28 1542.62C1007.62 1549.68 974.865 1564.36 957.926 1577.06C946.915 1585.25 933.081 1603.04 935.34 1605.58C936.469 1606.43 944.939 1603.88 954.256 1599.93C981.924 1587.79 1023.99 1580.45 1064.36 1580.17C1103.04 1579.89 1118.85 1582.43 1170.52 1596.54C1215.69 1608.97 1250.41 1612.92 1286.27 1609.25C1341.6 1604.17 1358.54 1597.96 1422.63 1560.41C1507.89 1510.44 1555.61 1490.67 1589.77 1490.67C1608.12 1490.67 1629.29 1497.17 1636.35 1505.07C1641.15 1510.44 1641.15 1510.72 1634.37 1512.41C1625.06 1514.67 1565.77 1545.73 1550.52 1556.17C1530.76 1569.72 1525.68 1587.79 1535.84 1607.84C1540.08 1616.31 1540.64 1619.41 1537.82 1621.11C1510.72 1639.46 1404.28 1694.79 1362.21 1712.3C1345.27 1719.35 1322.69 1727.54 1312.53 1730.37C1277.8 1739.68 1162.89 1806.88 1181.81 1806.88C1184.63 1806.88 1204.11 1804.33 1224.72 1801.23C1294.17 1791.07 1334.55 1777.51 1413.03 1738.27L1458.2 1715.68L1558.71 1719.35L1659.5 1723.03L1708.34 1702.98C1735.45 1691.97 1790.5 1669.1 1830.87 1652.16C1917.83 1615.46 1944.93 1605.86 1962.15 1605.3C1977.96 1605.01 1991.23 1610.38 1996.31 1619.41C1999.42 1625.62 1999.14 1627.03 1994.34 1631.55C1978.25 1647.08 1824.38 1741.09 1766.78 1771.02C1718.51 1795.86 1693.38 1803.77 1649.34 1808.29C1629.29 1810.55 1589.2 1816.19 1559.56 1820.99C1530.2 1825.79 1472.04 1835.39 1429.97 1842.17C1318.17 1860.52 1307.44 1861.36 1173.06 1861.93C1060.97 1862.49 1049.4 1863.06 1022.86 1868.7C990.393 1875.48 961.314 1885.36 935.905 1897.78C917.271 1907.1 887.91 1927.15 880.005 1936.18C874.923 1941.83 874.923 1942.11 890.168 1953.4C923.2 1977.68 1031.33 2043.46 1049.96 2050.52C1057.02 2053.06 1058.72 2051.93 1077.07 2033.02C1099.94 2009.02 1125.06 1995.47 1153.86 1990.67C1175.32 1987 1185.2 1988.13 1277.52 2005.35C1353.18 2019.47 1381.41 2022.29 1455.38 2022.29C1526.53 2022.29 1560.12 2018.9 1632.12 2004.5C1710.6 1988.41 1796.15 1955.66 1860.8 1916.98C1900.32 1892.98 1911.9 1883.95 1963.56 1835.67C2040.07 1763.68 2081.29 1706.09 2119.41 1618.57C2165.71 1512.13 2178.98 1438.72 2175.87 1311.4C2174.74 1274.13 2172.2 1227.83 2169.66 1208.63C2149.62 1048.84 2098.23 916.425 2012.69 804.06C2002.24 790.508 1996.03 779.498 1996.03 774.981C1996.03 763.405 1985.3 745.619 1973.45 737.431C1956.79 726.138 1935.61 710.046 1899.76 681.814C1832.28 628.737 1758.6 589.211 1665.71 556.179C1648.21 549.968 1631.83 544.886 1629.29 544.886C1626.75 544.886 1619.13 553.921 1612.07 564.931C1596.54 589.494 1571.7 613.209 1544.03 630.148L1523.14 642.57L1515.8 687.742C1511.56 712.305 1505.92 750.136 1503.09 771.593L1498.29 810.553L1505.64 818.176C1512.13 824.387 1514.39 825.234 1520.88 822.693C1530.2 819.588 1534.43 811.683 1538.38 789.097C1540.93 774.698 1564.92 690.848 1571.42 673.344C1579.32 651.887 1603.6 652.734 1603.6 674.191C1603.6 679.555 1598.24 690.848 1569.16 745.336C1551.65 778.368 1547.7 800.39 1552.78 838.786L1556.45 867.301L1523.7 898.639C1492.65 928.283 1490.67 930.824 1490.67 940.987C1490.67 953.127 1496.6 966.114 1504.51 971.761C1507.33 973.737 1513.54 983.618 1518.06 993.782C1540.36 1042.34 1596.83 1069.16 1653.29 1058.15C1665.43 1055.89 1676.16 1054.2 1676.72 1054.76C1678.98 1056.74 1664.3 1085.54 1648.49 1109.53C1633.25 1132.97 1615.18 1153.58 1562.38 1208.35C1504.79 1267.92 1472.6 1313.09 1452.84 1361.37C1450.58 1367.3 1448.04 1372.1 1447.19 1372.1C1446.35 1372.1 1434.49 1364.19 1420.66 1354.31C1407.1 1344.71 1385.36 1331.16 1372.66 1324.1C1359.96 1317.04 1349.51 1309.98 1349.51 1308.57C1349.51 1306.88 1356.57 1302.64 1365.32 1298.97C1392.14 1287.4 1406.82 1263.97 1410.77 1226.7C1411.62 1217.38 1414.16 1206.37 1416.14 1202.14C1420.94 1192.54 1421.22 1177.01 1416.7 1171.08C1414.73 1168.82 1407.39 1162.89 1400.33 1158.38C1382.82 1146.52 1379.15 1141.72 1371.81 1122.52C1364.19 1101.91 1348.66 1084.41 1329.75 1075.66L1315.63 1069.16L1317.32 1026.25C1318.74 993.217 1318.45 982.771 1315.63 981.077C1313.37 979.666 1304.9 986.159 1291.35 999.711L1270.74 1020.32L1269.89 996.323C1269.05 972.89 1269.05 972.608 1261.42 971.761C1257.19 971.196 1249.85 972.89 1245.05 975.431C1231.78 982.207 1190 1023.43 1175.32 1043.75C1165.15 1058.15 1158.94 1063.52 1143.13 1071.7C1119.13 1084.41 1090.9 1113.77 1078.48 1138.9C1061.82 1172.49 1058.15 1191.41 1056.74 1241.94L1055.89 1288.25L1032.46 1295.87C1019.47 1300.1 994.911 1309.98 977.971 1318.17C877.181 1366.17 794.743 1450.02 714.845 1584.97C688.024 1630.71 681.531 1640.3 677.296 1640.3C673.626 1640.3 643.417 1589.49 628.736 1558.43C587.799 1471.19 564.366 1387.91 552.226 1286.55C536.698 1156.97 550.532 1033.02 594.857 903.438C655.557 725.292 782.038 561.543 939.857 456.519C1043.75 387.349 1154.99 341.895 1283.16 316.486C1377.46 297.57 1519.47 297.006 1610.66 315.074C1818.73 356.011 1996.6 455.672 2127.03 604.174C2227.54 718.516 2289.65 839.35 2327.76 994.064C2348.94 1080.46 2356.84 1190.28 2348.09 1273.57C2339.06 1356.57 2309.98 1465.26 2276.66 1538.95C2234.03 1633.81 2178.98 1713.71 2102.75 1790.22C2058.43 1834.83 2017.77 1867.86 1963.56 1903.99C1926.02 1928.84 1893.27 1948.04 1830.87 1982.76C1808.29 1995.19 1803.77 2022.01 1821.56 2036.97C1835.11 2048.26 1845.55 2045.44 1909.92 2013.25C2199.87 1868.7 2388.46 1592.31 2416.98 1270.46C2421.21 1220.77 2418.67 1101.91 2412.46 1061.54C2392.98 934.776 2345.55 804.342 2280.33 696.494C2261.13 664.874 2207.49 590.623 2186.04 566.061C2165.14 542.345 2103.88 481.363 2082.14 463.012C1939.29 341.895 1747.02 259.739 1555.61 238.282C1511.28 233.483 1381.98 233.483 1342.45 238.565ZM1747.87 1245.33C1754.93 1252.39 1754.08 1263.97 1746.18 1269.33C1737.14 1275.26 1721.05 1266.51 1719.92 1254.93C1718.23 1240.25 1736.29 1233.76 1747.87 1245.33ZM1806.31 1247.03C1811.11 1253.52 1810.55 1258.32 1804.05 1264.81C1796.71 1272.15 1783.72 1272.15 1777.23 1264.81C1773 1260.01 1772.71 1258.04 1775.82 1250.98C1777.51 1246.18 1781.18 1241.94 1783.72 1241.38C1791.35 1239.12 1802.36 1242.23 1806.31 1247.03ZM2018.05 1684.35C2025.11 1689.15 2026.52 1701.57 2020.88 1708.63C2015.79 1714.84 1876.61 1815.63 1827.77 1848.38C1749 1901.45 1704.39 1916.98 1586.66 1932.79C1544.88 1938.44 1405.69 1940.41 1367.86 1935.62L1348.1 1933.36L1356.29 1929.12C1374.35 1919.52 1426.58 1902.87 1468.09 1893.27C1492.08 1887.9 1555.04 1875.76 1607.84 1866.16C1660.63 1856.85 1708.91 1847.81 1715.12 1846.12C1748.43 1837.08 1863.62 1768.48 1970.34 1694.51C1993.21 1678.7 2005.91 1675.88 2018.05 1684.35Z" fill="#EBFFEB"/>
<path d="M1730.65 1254.65C1730.65 1263.68 1735.73 1266.79 1741.09 1261.14C1746.74 1255.5 1743.92 1247.87 1736.29 1247.87C1732.06 1247.87 1730.65 1249.85 1730.65 1254.65Z" fill="#EBFFEB"/>
<path d="M1785.42 1251.83C1782.88 1258.6 1786.55 1265.38 1791.91 1264.25C1795.3 1263.68 1796.99 1260.86 1796.99 1256.34C1796.99 1248.16 1787.96 1244.77 1785.42 1251.83Z" fill="#EBFFEB"/>
<path d="M1414.16 343.306C1411.62 346.412 1409.64 358.834 1408.8 379.444L1407.39 410.782L1375.2 411.629C1357.13 411.911 1341.04 413.887 1339.06 415.581C1334.26 419.534 1333.98 480.233 1338.78 485.033C1340.76 487.009 1347.53 488.421 1353.74 488.421C1360.24 488.421 1375.2 489.268 1387.06 490.115L1408.8 492.091V522.3C1408.8 561.261 1409.36 561.825 1445.22 561.825C1482.77 561.825 1482.2 562.672 1482.2 523.711V491.244H1513.54C1530.76 491.244 1547.14 489.833 1550.24 488.421C1555.04 485.598 1555.61 482.21 1555.61 450.307C1555.61 425.463 1554.48 414.734 1552.22 413.04C1550.24 411.911 1534.71 410.782 1517.49 410.782H1486.44L1485.03 377.467C1483.9 352.058 1482.48 343.589 1479.38 341.612C1477.12 340.201 1462.16 338.789 1446.63 338.789C1423.48 338.789 1417.27 339.636 1414.16 343.306Z" fill="#EBFFEB"/>
<path d="M1237.99 551.662C1130.71 587.235 1046.58 635.795 970.066 706.658C892.991 777.804 833.421 863.912 791.919 964.138C768.769 1019.47 750.135 1084.97 751.547 1105.02C752.676 1121.67 758.323 1123.65 805.471 1123.65C835.115 1123.65 846.69 1124.78 854.878 1128.17C862.783 1131.56 883.392 1133.81 935.905 1136.36C974.866 1138.33 1016.93 1140.87 1029.35 1142C1050.53 1143.98 1052.79 1143.7 1058.43 1138.05C1065.77 1130.71 1066.06 1120.55 1059.56 1114.62C1053.07 1108.97 1039.8 1106.43 944.374 1092.6C811.117 1073.4 809.424 1073.11 804.059 1066.9C801.518 1064.08 800.107 1059.28 800.954 1056.18C803.777 1045.16 811.964 1044.88 875.205 1054.76C1036.41 1079.33 1069.44 1084.13 1076.22 1084.13C1090.62 1084.13 1097.68 1066.9 1086.95 1057.3C1082.15 1052.79 1002.25 1027.94 937.881 1010.72C913.601 1004.23 907.108 998.863 910.496 988.135C913.319 979.101 923.2 978.818 948.045 986.724C988.699 999.428 1103.89 1030.48 1110.95 1030.48C1119.13 1030.48 1129.3 1021.45 1129.3 1014.11C1129.3 1004.23 1112.92 994.064 1033.31 954.539C937.034 906.826 934.493 905.414 934.493 896.944C934.493 889.322 939.293 883.675 946.068 883.675C948.892 883.675 993.217 904.567 1044.6 930.259C1096.26 955.668 1142.85 977.407 1148.21 978.536C1155.84 979.948 1159.22 979.101 1164.87 973.737C1178.14 961.314 1171.65 950.868 1138.61 930.541C1126.47 923.201 1093.72 903.156 1065.77 885.934C1037.82 868.994 1012.7 852.902 1010.16 850.361C996.887 838.786 1011.85 821.282 1027.38 830.598C1154.14 907.108 1196.21 931.67 1200.44 931.67C1208.35 931.67 1217.38 921.224 1216.25 912.472C1215.41 904.85 1215.97 905.414 1097.68 802.93C1061.54 771.592 1050.25 760.299 1050.25 755.218C1050.25 749.007 1056.74 739.69 1060.97 739.69C1065.21 739.69 1078.48 750.7 1133.25 798.978C1224.72 879.44 1236.58 889.322 1241.66 889.322C1250.7 889.322 1259.17 881.134 1259.17 872.382C1259.17 865.889 1246.46 848.949 1197.9 790.508C1124.22 702.141 1121.67 698.47 1125.63 692.259C1127.04 689.436 1132.12 687.178 1136.92 686.613C1144.54 685.766 1147.93 688.871 1173.9 720.492C1189.71 739.69 1215.41 770.463 1231.22 789.097C1247.03 807.73 1264.81 830.316 1270.74 839.068C1276.95 848.102 1284.58 856.854 1287.68 858.548C1295.87 862.783 1306.88 859.395 1310.27 851.49C1314.22 843.02 1311.68 837.092 1274.13 771.592C1227.83 691.412 1217.66 670.238 1221.33 664.309C1225.57 657.251 1236.02 656.404 1242.79 662.615C1245.9 665.439 1252.95 676.449 1258.32 687.46C1263.97 698.188 1276.95 722.468 1287.4 741.101C1297.84 759.735 1313.09 787.967 1321.28 804.06C1339.91 840.762 1350.36 846.973 1362.5 828.622C1367.01 821.846 1366.73 819.87 1351.49 772.722C1343.02 746.183 1331.44 711.175 1325.79 695.365C1314.78 664.592 1315.07 654.428 1326.64 651.322C1336.24 648.781 1346.12 659.227 1351.2 677.014C1353.74 685.766 1360.52 709.481 1366.73 729.808C1372.66 749.854 1380.28 776.674 1383.39 789.097C1386.78 801.519 1391.58 813.941 1393.83 816.482C1400.05 823.54 1409.36 822.693 1416.99 814.788L1423.2 808.295L1417.27 757.759C1405.41 656.404 1403.15 646.805 1392.42 646.523C1385.36 646.523 1359.39 634.383 1341.04 622.525C1318.74 608.127 1288.53 577.071 1277.23 557.026C1272.72 548.839 1268.48 542.063 1267.64 542.063C1266.79 542.345 1253.52 546.58 1237.99 551.662Z" fill="#EBFFEB"/>
<path d="M1441.55 654.146C1439.57 656.122 1441.83 789.661 1444.37 800.954C1447.48 816.482 1466.96 821.564 1475.43 809.142C1479.1 803.213 1480.23 789.097 1481.36 727.268L1483.05 652.169H1463.29C1452.56 652.169 1442.68 653.016 1441.55 654.146Z" fill="#EBFFEB"/>
<path d="M1709.19 723.033C1704.67 728.115 1703.83 732.914 1704.39 750.701C1705.24 788.814 1722.46 836.527 1749.28 874.076C1764.24 895.251 1809.13 937.881 1815.06 936.752C1817.89 936.188 1819.86 932.235 1820.43 927.153C1820.99 920.66 1817.32 912.755 1804.62 893.274C1766.22 834.551 1750.41 801.519 1737.71 752.112C1728.95 717.669 1721.05 709.764 1709.19 723.033Z" fill="#EBFFEB"/>
<path d="M1630.99 809.424C1627.32 812.812 1629.01 825.234 1633.81 830.598C1637.76 835.115 1638.05 837.092 1634.66 847.255C1630.99 857.984 1631.27 859.395 1636.07 862.783C1652.16 874.641 1690.28 858.548 1687.73 841.044C1687.17 835.962 1684.06 833.986 1671.64 831.163C1660.35 828.622 1653.86 825.234 1646.8 817.611C1636.92 807.448 1634.37 806.036 1630.99 809.424Z" fill="#EBFFEB"/>
<path d="M1366.45 883.675C1362.78 896.944 1354.87 905.132 1343.58 907.673C1332.85 910.214 1333.14 912.755 1344.71 916.99C1356 920.942 1364.76 929.976 1368.71 941.552C1371.25 949.174 1371.53 949.457 1373.23 944.375C1378.02 930.541 1383.11 924.048 1394.4 917.836L1406.54 911.061L1397.22 907.108C1383.39 901.179 1378.31 895.815 1376.33 883.393C1373.79 869.277 1370.4 869.277 1366.45 883.675Z" fill="#EBFFEB"/>
<path d="M1418.4 1024.84C1408.52 1028.79 1400.33 1041.49 1400.33 1052.79C1400.33 1065.77 1411.9 1084.69 1428.84 1099.37C1449.17 1116.87 1448.61 1116.87 1468.09 1100.22C1488.7 1083 1499.14 1066.62 1499.14 1051.94C1499.14 1024.84 1469.5 1012.7 1454.53 1033.87C1451.15 1038.67 1450.58 1038.67 1444.65 1031.9C1437.59 1023.99 1427.15 1021.17 1418.4 1024.84Z" fill="#EBFFEB"/>
<path d="M1909.92 1086.95C1907.38 1097.96 1898.07 1109.53 1887.9 1113.77L1879.43 1117.44L1890.16 1122.52C1898.35 1126.47 1902.3 1130.71 1906.82 1141.15C1909.92 1148.5 1913.31 1154.71 1914.44 1154.71C1915.57 1154.71 1918.11 1149.34 1920.37 1142.85C1923.19 1133.25 1926.58 1129.3 1936.18 1123.93L1948.6 1117.44L1937.59 1112.36C1926.58 1107.56 1916.98 1093.72 1916.98 1083C1916.98 1075.37 1911.9 1077.91 1909.92 1086.95Z" fill="#EBFFEB"/>
<path d="M1309.42 1153.86C1306.6 1156.4 1297.56 1159.79 1288.81 1161.76C1280.06 1163.46 1272.72 1166 1272.44 1167.41C1271.31 1172.78 1304.62 1186.89 1321.56 1188.02C1330.88 1188.87 1338.22 1188.02 1338.22 1186.61C1338.22 1185.2 1335.11 1179.83 1331.44 1174.75C1327.49 1169.39 1323.54 1161.76 1322.69 1157.25C1320.71 1147.93 1316.2 1146.8 1309.42 1153.86Z" fill="#EBFFEB"/>
<path d="M1980.22 1173.9L1971.75 1184.35L1982.2 1194.8C1992.08 1204.4 1993.21 1204.68 1994.62 1199.6C1995.75 1196.49 1999.42 1191.97 2003.37 1189.71L2010.15 1185.2L2001.68 1177.29C1996.88 1173.06 1993.21 1167.98 1993.21 1166.28C1993.21 1160.64 1989.26 1163.18 1980.22 1173.9Z" fill="#EBFFEB"/>
<path d="M861.089 1171.08C859.677 1171.65 858.266 1177.57 858.266 1184.35C858.266 1193.95 859.677 1197.62 863.912 1199.88C867.018 1201.57 891.862 1204.96 918.683 1207.22C975.43 1212.3 983.335 1210.89 984.747 1195.36C985.876 1184.07 981.359 1180.68 961.032 1177.29C942.963 1174.19 865.888 1169.67 861.089 1171.08Z" fill="#EBFFEB"/>
<path d="M836.809 1239.97C831.445 1250.7 829.186 1252.39 813.376 1257.75C803.495 1260.86 795.59 1264.53 795.59 1266.22C795.872 1267.64 801.801 1270.46 808.859 1272.44C820.999 1275.26 835.68 1285.42 835.68 1290.5C835.68 1291.63 836.809 1295.87 838.503 1299.82C841.891 1309.14 848.667 1306.88 850.925 1295.59C853.466 1283.16 863.63 1274.41 878.875 1272.15C896.097 1269.61 896.097 1263.68 878.875 1259.17C862.5 1255.21 859.395 1252.67 852.337 1238.84C849.231 1232.91 845.843 1228.11 844.714 1228.11C843.302 1228.11 839.915 1233.47 836.809 1239.97Z" fill="#EBFFEB"/>
<path d="M530.487 1784.01C523.994 1790.5 522.3 1794.74 522.3 1804.05C522.3 1826.36 543.756 1838.78 564.366 1828.33C589.775 1815.06 579.329 1775.82 550.532 1775.82C541.215 1775.82 536.981 1777.51 530.487 1784.01Z" fill="#EBFFEB"/>
<path d="M2322.4 1783.16C2316.75 1789.09 2315.06 1793.32 2315.06 1803.21C2315.06 1833.98 2354.3 1843.86 2367.29 1816.19C2380.56 1788.24 2344.14 1761.42 2322.4 1783.16Z" fill="#EBFFEB"/>
<path d="M802.93 2008.74C788.531 2018.62 787.402 2044.59 800.954 2055.32C819.023 2069.44 846.973 2056.45 846.973 2033.58C846.69 2011.28 820.434 1996.31 802.93 2008.74Z" fill="#EBFFEB"/>
<path d="M2066.61 2008.17C2056.73 2013.25 2048.26 2029.63 2050.8 2039.51C2055.89 2060.4 2080.45 2068.03 2097.1 2053.91C2101.62 2049.96 2106.42 2043.75 2107.27 2039.79C2109.81 2029.63 2102.47 2014.1 2092.3 2009.02C2082.14 2003.66 2075.93 2003.37 2066.61 2008.17Z" fill="#EBFFEB"/>
<path d="M1121.58 2294.81C1116.22 2297.35 1111.42 2301.3 1110.57 2303.28C1109.44 2306.38 1107.18 2305.53 1101.25 2299.89C1085.16 2284.36 1060.6 2296.22 1065.68 2316.83C1067.66 2324.45 1108.03 2369.34 1110.29 2366.23C1110.85 2365.39 1120.45 2354.94 1131.74 2342.8C1151.79 2321.34 1154.89 2314.57 1150.38 2302.71C1148.97 2299.04 1135.41 2289.72 1131.74 2290.01C1131.18 2290.01 1126.66 2292.26 1121.58 2294.81Z" fill="#EBFFEB"/>
<path d="M2134.21 2295.14C2124.33 2305.87 2128 2316.31 2149.46 2340.88C2160.75 2353.3 2170.63 2363.46 2171.48 2363.18C2176.28 2362.33 2211.29 2320.55 2212.98 2313.77C2218.06 2294.01 2195.2 2282.44 2178.82 2296.55L2170.92 2303.05L2164.42 2296.55C2156.24 2288.36 2140.71 2287.8 2134.21 2295.14Z" fill="#EBFFEB"/>
<path d="M309.754 2320.2C291.415 2334.2 291.415 2360.8 309.754 2374.8C320.887 2383.2 341.19 2386 387.036 2386C432.881 2386 453.184 2383.2 464.318 2374.8C482.001 2361.5 482.656 2341.2 465.628 2323C454.494 2311.1 444.015 2309 388.346 2309C341.19 2309 320.887 2311.8 309.754 2320.2Z" fill="#EBFFEB"/>
<path d="M2432.75 2320.2C2414.42 2334.2 2414.42 2360.8 2432.75 2374.8C2443.89 2383.2 2464.19 2386 2510.04 2386C2555.88 2386 2576.18 2383.2 2587.32 2374.8C2605 2361.5 2605.66 2341.2 2588.63 2323C2577.49 2311.1 2567.01 2309 2511.35 2309C2464.19 2309 2443.89 2311.8 2432.75 2320.2Z" fill="#EBFFEB"/>
<path d="M621.88 2153.9H880.705V2429.98H917.68V2563.09H833.87L828.94 2499H636.67L631.74 2563.09H547.93V2429.98H579.975C589.506 2419.13 596.573 2406.97 601.174 2393.5C606.104 2379.69 608.898 2367.2 609.555 2356.03L621.88 2153.9ZM791.965 2429.98V2222.92H700.76L693.365 2346.17C692.379 2366.22 687.449 2386.43 678.575 2406.81C674.96 2415.35 670.851 2423.08 666.25 2429.98H791.965ZM1179.1 2247.57C1179.1 2227.85 1169.24 2217.99 1149.52 2217.99H1065.71C1045.99 2217.99 1036.13 2227.85 1036.13 2247.57V2405.33C1036.13 2425.05 1045.99 2434.91 1065.71 2434.91H1149.52C1169.24 2434.91 1179.1 2425.05 1179.1 2405.33V2247.57ZM1267.84 2405.33C1267.84 2439.84 1259.96 2464.98 1244.18 2480.76C1228.73 2496.21 1203.75 2503.93 1169.24 2503.93H1045.99C1011.48 2503.93 986.342 2496.21 970.566 2480.76C955.118 2464.98 947.395 2439.84 947.395 2405.33V2247.57C947.395 2213.06 955.118 2188.08 970.566 2172.63C986.342 2156.86 1011.48 2148.97 1045.99 2148.97H1169.24C1203.75 2148.97 1228.73 2156.86 1244.18 2172.63C1259.96 2188.08 1267.84 2213.06 1267.84 2247.57V2405.33ZM1406.12 2287.01H1524.44C1558.95 2287.01 1583.92 2294.9 1599.37 2310.67C1615.15 2326.12 1623.04 2351.1 1623.04 2385.61V2400.4C1623.04 2434.91 1615.15 2460.05 1599.37 2475.83C1583.92 2491.28 1558.95 2499 1524.44 2499H1317.38V2153.9H1590.99V2222.92H1406.12V2287.01ZM1534.3 2385.61C1534.3 2365.89 1524.44 2356.03 1504.72 2356.03H1406.12V2429.98H1504.72C1524.44 2429.98 1534.3 2420.12 1534.3 2400.4V2385.61ZM1667.39 2153.9H1874.45C1908.96 2153.9 1933.94 2161.79 1949.38 2177.56C1965.16 2193.01 1973.05 2217.99 1973.05 2252.5V2301.8C1973.05 2336.31 1965.16 2361.45 1949.38 2377.23C1933.94 2392.68 1908.96 2400.4 1874.45 2400.4H1756.13V2499H1667.39V2153.9ZM1884.31 2252.5C1884.31 2232.78 1874.45 2222.92 1854.73 2222.92H1756.13V2331.38H1854.73C1874.45 2331.38 1884.31 2321.52 1884.31 2301.8V2252.5ZM2239.25 2247.57C2239.25 2227.85 2229.39 2217.99 2209.67 2217.99H2125.86C2106.14 2217.99 2096.28 2227.85 2096.28 2247.57V2405.33C2096.28 2425.05 2106.14 2434.91 2125.86 2434.91H2209.67C2229.39 2434.91 2239.25 2425.05 2239.25 2405.33V2247.57ZM2327.99 2405.33C2327.99 2439.84 2320.1 2464.98 2304.32 2480.76C2288.88 2496.21 2263.9 2503.93 2229.39 2503.93H2106.14C2071.63 2503.93 2046.48 2496.21 2030.71 2480.76C2015.26 2464.98 2007.54 2439.84 2007.54 2405.33V2247.57C2007.54 2213.06 2015.26 2188.08 2030.71 2172.63C2046.48 2156.86 2071.63 2148.97 2106.14 2148.97H2229.39C2263.9 2148.97 2288.88 2156.86 2304.32 2172.63C2320.1 2188.08 2327.99 2213.06 2327.99 2247.57V2405.33Z" fill="#EBFFEB"/>
<path d="M942.779 2667H883.119V2583.79H938.069C945.081 2583.79 950.733 2585.88 955.025 2590.07C959.421 2594.15 961.619 2598.76 961.619 2603.89C961.619 2609.01 960.52 2613.2 958.322 2616.45C956.124 2619.69 953.036 2621.89 949.059 2623.04C953.769 2623.88 957.798 2626.18 961.148 2629.95C964.602 2633.72 966.329 2638.74 966.329 2645.02C966.329 2651.3 964.131 2656.53 959.735 2660.72C955.443 2664.91 949.791 2667 942.779 2667ZM938.854 2640.31C938.854 2638.74 938.33 2637.43 937.284 2636.38C936.237 2635.34 934.929 2634.81 933.359 2634.81H910.594V2648.16H933.359C934.929 2648.16 936.237 2647.64 937.284 2646.59C938.33 2645.54 938.854 2644.23 938.854 2642.66V2640.31ZM934.144 2608.12C934.144 2606.55 933.62 2605.25 932.574 2604.2C931.527 2603.15 930.219 2602.63 928.649 2602.63H910.594V2616.76H928.649C930.219 2616.76 931.527 2616.24 932.574 2615.19C933.62 2614.14 934.144 2612.83 934.144 2611.26V2608.12ZM1009.44 2601.84C1005.26 2601.84 1003.16 2603.94 1003.16 2608.12V2616.76H1029.85V2608.12C1029.85 2603.94 1027.76 2601.84 1023.57 2601.84H1009.44ZM1054.19 2665.43C1033.99 2667.52 1015.67 2668.57 999.237 2668.57C992.12 2668.57 986.416 2666.42 982.124 2662.13C977.833 2657.84 975.687 2652.14 975.687 2645.02V2607.34C975.687 2599.49 977.885 2593.37 982.281 2588.97C986.782 2584.47 992.957 2582.22 1000.81 2582.22H1032.21C1040.06 2582.22 1046.18 2584.47 1050.58 2588.97C1055.08 2593.37 1057.33 2599.49 1057.33 2607.34V2636.38H1003.16V2642.66C1003.16 2644.23 1003.69 2645.54 1004.73 2646.59C1005.78 2647.64 1007.09 2648.16 1008.66 2648.16C1019.02 2648.16 1034.2 2647.37 1054.19 2645.8V2665.43ZM1118.5 2604.98V2667H1091.02V2604.98H1065.12V2583.79H1144.4V2604.98H1118.5ZM1186.07 2601.84C1181.88 2601.84 1179.79 2603.94 1179.79 2608.12V2616.76H1206.48V2608.12C1206.48 2603.94 1204.38 2601.84 1200.2 2601.84H1186.07ZM1230.81 2665.43C1210.61 2667.52 1192.29 2668.57 1175.86 2668.57C1168.74 2668.57 1163.04 2666.42 1158.75 2662.13C1154.46 2657.84 1152.31 2652.14 1152.31 2645.02V2607.34C1152.31 2599.49 1154.51 2593.37 1158.91 2588.97C1163.41 2584.47 1169.58 2582.22 1177.43 2582.22H1208.83C1216.68 2582.22 1222.81 2584.47 1227.2 2588.97C1231.7 2593.37 1233.95 2599.49 1233.95 2607.34V2636.38H1179.79V2642.66C1179.79 2644.23 1180.31 2645.54 1181.36 2646.59C1182.4 2647.64 1183.71 2648.16 1185.28 2648.16C1195.64 2648.16 1210.82 2647.37 1230.81 2645.8V2665.43ZM1294.34 2604.98C1288.79 2604.98 1282.51 2606.03 1275.5 2608.12V2645.8H1299.05C1303.23 2645.8 1305.33 2643.71 1305.33 2639.52V2610.48C1305.33 2608.91 1304.8 2607.6 1303.76 2606.55C1302.71 2605.51 1301.4 2604.98 1299.83 2604.98H1294.34ZM1275.5 2667V2693.69H1248.02V2583.79H1272.36L1273.93 2591.64C1278.85 2588.4 1283.87 2586.04 1289 2584.57C1294.23 2583 1298.63 2582.22 1302.19 2582.22H1309.25C1316.37 2582.22 1322.07 2584.37 1326.36 2588.66C1330.66 2592.95 1332.8 2598.65 1332.8 2605.77V2641.88C1332.8 2649.73 1330.55 2655.91 1326.05 2660.41C1321.65 2664.8 1315.53 2667 1307.68 2667H1275.5ZM1401.08 2583.79H1430.12V2667H1402.65V2621.47L1375.96 2667H1346.91V2583.79H1374.39V2629.32L1401.08 2583.79ZM1501.54 2614.4V2583.79H1529.01V2667H1501.54V2635.6H1473.28V2667H1445.8V2583.79H1473.28V2614.4H1501.54ZM1577.67 2646.59C1583.21 2646.59 1589.49 2645.54 1596.51 2643.45V2634.03H1573.74C1572.17 2634.03 1570.86 2634.55 1569.82 2635.6C1568.77 2636.65 1568.25 2637.95 1568.25 2639.52V2641.09C1568.25 2642.66 1568.77 2643.97 1569.82 2645.02C1570.86 2646.07 1572.17 2646.59 1573.74 2646.59H1577.67ZM1548.62 2585.36C1567.77 2583.27 1585.04 2582.22 1600.43 2582.22C1607.55 2582.22 1613.25 2584.37 1617.54 2588.66C1621.84 2592.95 1623.98 2598.65 1623.98 2605.77V2667H1599.65L1598.08 2659.15C1593.16 2662.39 1588.08 2664.8 1582.85 2666.37C1577.72 2667.84 1573.37 2668.57 1569.82 2668.57H1564.32C1557.2 2668.57 1551.5 2666.42 1547.21 2662.13C1542.92 2657.84 1540.77 2652.14 1540.77 2645.02V2637.95C1540.77 2630.84 1542.92 2625.13 1547.21 2620.84C1551.5 2616.55 1557.2 2614.4 1564.32 2614.4H1596.51V2608.12C1596.51 2606.55 1595.98 2605.25 1594.94 2604.2C1593.89 2603.15 1592.58 2602.63 1591.01 2602.63C1584.21 2602.63 1576.67 2602.94 1568.4 2603.57C1560.24 2604.2 1553.64 2604.67 1548.62 2604.98V2585.36ZM1684.38 2604.98C1678.84 2604.98 1672.56 2606.03 1665.54 2608.12V2645.8H1689.09C1693.28 2645.8 1695.37 2643.71 1695.37 2639.52V2610.48C1695.37 2608.91 1694.85 2607.6 1693.8 2606.55C1692.76 2605.51 1691.45 2604.98 1689.88 2604.98H1684.38ZM1665.54 2667V2693.69H1638.07V2583.79H1662.4L1663.97 2591.64C1668.89 2588.4 1673.92 2586.04 1679.04 2584.57C1684.28 2583 1688.67 2582.22 1692.23 2582.22H1699.3C1706.42 2582.22 1712.12 2584.37 1716.41 2588.66C1720.7 2592.95 1722.85 2598.65 1722.85 2605.77V2641.88C1722.85 2649.73 1720.6 2655.91 1716.1 2660.41C1711.7 2664.8 1705.58 2667 1697.73 2667H1665.54ZM1792.69 2614.4V2583.79H1820.17V2667H1792.69V2635.6H1764.43V2667H1736.96V2583.79H1764.43V2614.4H1792.69ZM1868.82 2646.59C1874.37 2646.59 1880.65 2645.54 1887.66 2643.45V2634.03H1864.9C1863.33 2634.03 1862.02 2634.55 1860.97 2635.6C1859.92 2636.65 1859.4 2637.95 1859.4 2639.52V2641.09C1859.4 2642.66 1859.92 2643.97 1860.97 2645.02C1862.02 2646.07 1863.33 2646.59 1864.9 2646.59H1868.82ZM1839.78 2585.36C1858.93 2583.27 1876.2 2582.22 1891.59 2582.22C1898.7 2582.22 1904.41 2584.37 1908.7 2588.66C1912.99 2592.95 1915.14 2598.65 1915.14 2605.77V2667H1890.8L1889.23 2659.15C1884.31 2662.39 1879.24 2664.8 1874 2666.37C1868.87 2667.84 1864.53 2668.57 1860.97 2668.57H1855.48C1848.36 2668.57 1842.65 2666.42 1838.36 2662.13C1834.07 2657.84 1831.93 2652.14 1831.93 2645.02V2637.95C1831.93 2630.84 1834.07 2625.13 1838.36 2620.84C1842.65 2616.55 1848.36 2614.4 1855.48 2614.4H1887.66V2608.12C1887.66 2606.55 1887.14 2605.25 1886.09 2604.2C1885.04 2603.15 1883.74 2602.63 1882.17 2602.63C1875.36 2602.63 1867.83 2602.94 1859.56 2603.57C1851.39 2604.2 1844.8 2604.67 1839.78 2604.98V2585.36ZM2010.86 2583.79V2667H1983.39V2641.09H1970.04L1955.13 2667H1926.08L1941.78 2639.52C1937.39 2637.95 1933.93 2635.29 1931.42 2631.52C1928.91 2627.75 1927.65 2623.09 1927.65 2617.54V2607.34C1927.65 2600.22 1929.8 2594.52 1934.09 2590.23C1938.38 2585.94 1944.09 2583.79 1951.2 2583.79H2010.86ZM1960.62 2603.41C1959.05 2603.41 1957.74 2603.94 1956.7 2604.98C1955.65 2606.03 1955.13 2607.34 1955.13 2608.91V2615.97C1955.13 2617.54 1955.65 2618.85 1956.7 2619.9C1957.74 2620.95 1959.05 2621.47 1960.62 2621.47H1983.39V2603.41H1960.62ZM1154.73 2766.6H1142.95V2798H1115.48V2714.79H1142.95V2745.4H1155.51L1164.15 2728.13C1167.29 2721.44 1172.2 2716.88 1178.9 2714.48C1181.31 2713.64 1183.61 2713.22 1185.81 2713.22C1189.37 2713.22 1192.61 2713.48 1195.55 2714L1199.47 2714.79V2735.98H1193.98C1190.42 2735.98 1187.8 2737.55 1186.13 2740.69L1178.28 2756.39L1201.83 2798H1172L1154.73 2766.6ZM1219.03 2799.57C1214.53 2799.57 1209.3 2799.05 1203.33 2798V2777.59H1209.61C1213.59 2777.59 1215.68 2775.5 1215.89 2771.31L1219.03 2714.79H1294.39V2798H1266.92V2735.98H1244.94L1242.58 2776.02C1242.17 2783.14 1239.81 2788.84 1235.52 2793.13C1231.23 2797.42 1225.73 2799.57 1219.03 2799.57ZM1364.2 2714.79H1393.25V2798H1365.77V2752.47L1339.08 2798H1310.04V2714.79H1337.51V2760.32L1364.2 2714.79ZM1464.67 2745.4V2714.79H1492.14V2798H1464.67V2766.6H1436.41V2798H1408.93V2714.79H1436.41V2745.4H1464.67ZM1561.99 2714.79H1591.03V2798H1563.56V2752.47L1536.87 2798H1507.82V2714.79H1535.3V2760.32L1561.99 2714.79ZM1645.96 2766.6H1634.19V2798H1606.71V2714.79H1634.19V2745.4H1646.75L1655.38 2728.13C1658.52 2721.44 1663.44 2716.88 1670.14 2714.48C1672.55 2713.64 1674.85 2713.22 1677.05 2713.22C1680.61 2713.22 1683.85 2713.48 1686.78 2714L1690.71 2714.79V2735.98H1685.21C1681.66 2735.98 1679.04 2737.55 1677.36 2740.69L1669.51 2756.39L1693.06 2798H1663.23L1645.96 2766.6ZM1733.82 2777.59C1739.37 2777.59 1745.65 2776.54 1752.66 2774.45V2765.03H1729.9C1728.33 2765.03 1727.02 2765.55 1725.97 2766.6C1724.93 2767.65 1724.4 2768.95 1724.4 2770.52V2772.09C1724.4 2773.66 1724.93 2774.97 1725.97 2776.02C1727.02 2777.07 1728.33 2777.59 1729.9 2777.59H1733.82ZM1704.78 2716.36C1723.93 2714.27 1741.2 2713.22 1756.59 2713.22C1763.7 2713.22 1769.41 2715.37 1773.7 2719.66C1777.99 2723.95 1780.14 2729.65 1780.14 2736.77V2798H1755.8L1754.23 2790.15C1749.31 2793.39 1744.24 2795.8 1739 2797.37C1733.87 2798.84 1729.53 2799.57 1725.97 2799.57H1720.48C1713.36 2799.57 1707.66 2797.42 1703.36 2793.13C1699.07 2788.84 1696.93 2783.14 1696.93 2776.02V2768.95C1696.93 2761.84 1699.07 2756.13 1703.36 2751.84C1707.66 2747.55 1713.36 2745.4 1720.48 2745.4H1752.66V2739.12C1752.66 2737.55 1752.14 2736.25 1751.09 2735.2C1750.05 2734.15 1748.74 2733.63 1747.17 2733.63C1740.36 2733.63 1732.83 2733.94 1724.56 2734.57C1716.4 2735.2 1709.8 2735.67 1704.78 2735.98V2716.36Z" fill="#EBFFEB"/>
</svg>
