<svg width="6252" height="2870" viewBox="0 0 6252 2870" fill="none" xmlns="http://www.w3.org/2000/svg">
<g clip-path="url(#clip0_2_2)">
<path d="M1198.94 557.235C966.706 587.344 758.3 694.689 618.49 856.753C464.804 1034.53 388.877 1246.6 397.517 1473.59C400.397 1543.76 407.204 1591.67 423.699 1657.39C449.618 1759.23 499.625 1863.96 562.199 1947.74C573.458 1962.67 583.668 1974.97 584.978 1974.97C587.857 1974.97 608.279 1951.41 655.144 1893.81C699.653 1839.61 715.362 1823.12 743.376 1801.39C767.725 1782.54 790.242 1770.23 828.467 1754.26C886.066 1730.43 908.321 1708.18 940.001 1643.77C966.182 1590.36 970.109 1573.61 972.466 1506.32C974.56 1445.05 976.655 1434.84 992.102 1404.21C996.815 1394.79 1004.41 1382.48 1009.12 1376.72C1017.24 1366.51 1017.24 1366.51 1015.14 1374.1C1010.17 1391.91 1013.83 1429.08 1020.38 1427.25C1022.21 1426.73 1033.21 1406.83 1045.25 1383.27C1065.41 1342.95 1112.28 1268.07 1117.51 1268.07C1118.56 1268.07 1118.82 1277.23 1118.04 1288.23C1117.25 1299.48 1115.94 1318.6 1114.89 1330.9L1113.32 1353.16L1128.77 1353.42C1147.36 1353.94 1170.66 1362.32 1179.82 1372.27C1183.75 1376.2 1189.77 1385.88 1193.7 1394.26C1199.98 1407.62 1214.38 1424.63 1227.48 1433.8C1231.66 1436.94 1231.93 1437.99 1228.78 1443.22C1225.38 1448.46 1225.9 1449.77 1233.5 1456.57C1240.83 1463.38 1241.61 1464.95 1239.52 1472.28C1232.97 1494.8 1220.93 1503.7 1184.01 1512.87C1164.12 1517.84 1156.26 1524.65 1153.9 1538.79C1149.98 1564.18 1167.26 1588.27 1202.86 1606.86C1235.85 1623.88 1263.34 1643.77 1285.07 1665.77L1305.76 1686.71L1325.92 1667.86C1390.32 1607.64 1456.56 1579.63 1535.11 1579.63C1616.53 1579.63 1675.44 1604.5 1716.29 1656.08C1721.78 1663.15 1726.76 1667.86 1727.54 1666.55C1728.07 1665.5 1730.16 1656.6 1731.73 1646.92C1735.4 1625.97 1732.26 1602.67 1722.57 1578.32C1718.9 1569.94 1716.55 1562.61 1716.81 1562.61C1746.66 1545.85 1753.99 1536.43 1753.73 1514.96C1753.46 1498.47 1747.44 1487.99 1738.28 1487.99C1730.95 1487.99 1729.12 1493.23 1729.9 1510.51C1730.42 1523.86 1723.88 1534.07 1713.41 1536.43C1707.12 1537.74 1702.67 1536.43 1692.46 1529.88C1677.8 1520.46 1658.42 1500.04 1658.42 1493.49C1657.38 1457.36 1653.19 1418.87 1649.52 1413.37C1645.33 1407.09 1644.81 1407.09 1637.74 1410.76C1633.55 1412.85 1625.17 1420.44 1619.15 1427.77C1608.16 1440.87 1607.63 1441.39 1596.9 1439.56C1590.88 1438.77 1580.67 1439.29 1574.38 1440.6L1562.86 1443.22L1551.6 1430.13C1541.13 1418.35 1528.83 1409.45 1522.8 1409.45C1516.52 1409.45 1513.64 1425.94 1515.21 1453.43C1516.26 1474.64 1515.73 1484.85 1512.59 1495.59C1507.62 1512.87 1510.76 1530.67 1521.23 1547.16L1527.78 1557.37L1517.31 1546.12C1504.21 1531.98 1498.72 1516.01 1496.88 1487.73C1494.53 1451.86 1503.95 1422.28 1524.9 1398.98C1563.39 1356.56 1580.67 1318.86 1580.67 1279.59C1580.4 1244.5 1568.62 1234.82 1543.23 1249.22C1513.38 1266.5 1490.34 1276.45 1477.25 1278.28C1460.23 1280.37 1435.88 1277.49 1425.15 1271.99C1413.36 1265.71 1397.66 1250.79 1393.99 1241.89C1391.11 1234.82 1391.37 1233.51 1398.96 1224.87C1403.42 1219.63 1407.08 1213.35 1407.08 1210.47C1407.08 1204.71 1399.75 1199.99 1390.85 1199.99C1385.09 1199.73 1385.35 1199.21 1394.25 1191.35C1399.23 1186.9 1409.18 1178.53 1415.98 1172.77C1439.02 1154.18 1441.9 1144.23 1434.31 1111.76C1425.67 1074.06 1440.07 1036.1 1477.51 999.705C1526.21 952.054 1591.4 938.44 1644.02 964.883C1649.78 968.025 1670.47 982.949 1689.84 998.396C1709.22 1013.58 1732.52 1031.38 1741.68 1037.41C1772.31 1058.09 1774.15 1069.09 1755.3 1117.26C1739.06 1158.37 1709.48 1203.4 1674.13 1240.58C1653.97 1261.52 1650.83 1268.07 1656.85 1277.23C1662.88 1286.39 1675.7 1285.87 1688.8 1276.18C1712.36 1258.9 1751.37 1212.56 1764.98 1185.86C1771.27 1173.55 1771.79 1173.03 1775.46 1178C1784.88 1190.83 1818.92 1262.31 1829.65 1292.42C1881.49 1435.63 1876.52 1586.17 1816.3 1699.54C1793.52 1742.48 1752.94 1791.7 1737.49 1795.63C1725.71 1798.51 1645.07 1829.92 1588.52 1853.49C1559.46 1865.53 1523.33 1879.67 1508.4 1884.64L1480.91 1893.81H1425.67C1395.3 1893.81 1370.43 1893.02 1370.43 1891.71C1370.43 1890.67 1381.95 1883.07 1396.08 1874.7C1454.47 1839.87 1504.74 1797.98 1516 1774.68C1522.8 1760.54 1522.8 1733.84 1516 1720.49C1508.67 1705.56 1492.17 1690.38 1475.68 1683.83C1462.85 1678.59 1456.04 1677.81 1429.34 1677.81C1403.42 1677.81 1395.04 1678.86 1380.9 1684.09C1357.07 1692.47 1299.74 1720.22 1269.89 1737.77C1230.09 1761.33 1193.7 1777.82 1172.23 1782.8C1139.5 1790.13 1100.76 1786.99 1053.63 1773.37C1018.55 1763.16 1012.79 1762.11 977.702 1761.07C943.404 1760.02 937.121 1760.54 914.081 1766.57C888.423 1773.11 858.052 1786.73 842.343 1798.51C832.132 1806.1 819.303 1822.59 821.398 1824.95C822.445 1825.74 830.299 1823.38 838.939 1819.71C864.597 1808.46 903.608 1801.65 941.048 1801.39C976.917 1801.13 991.578 1803.48 1039.49 1816.57C1081.38 1828.09 1113.58 1831.76 1146.84 1828.35C1198.15 1823.64 1213.86 1817.88 1273.29 1783.06C1352.36 1736.72 1396.61 1718.39 1428.29 1718.39C1445.31 1718.39 1464.94 1724.41 1471.49 1731.74C1475.94 1736.72 1475.94 1736.98 1469.66 1738.55C1461.02 1740.65 1406.03 1769.45 1391.9 1779.13C1373.57 1791.7 1368.86 1808.46 1378.28 1827.04C1382.21 1834.9 1382.73 1837.78 1380.11 1839.35C1354.98 1856.37 1256.27 1907.68 1217.26 1923.92C1201.56 1930.46 1180.61 1938.05 1171.18 1940.67C1138.98 1949.31 1032.42 2011.63 1049.96 2011.63C1052.58 2011.63 1070.65 2009.27 1089.76 2006.39C1154.17 1996.96 1191.61 1984.4 1264.39 1948L1306.28 1927.06L1399.49 1930.46L1492.96 1933.87L1538.25 1915.28C1563.39 1905.07 1614.44 1883.86 1651.88 1868.15C1732.52 1834.11 1757.65 1825.21 1773.62 1824.69C1788.29 1824.43 1800.59 1829.4 1805.3 1837.78C1808.18 1843.54 1807.92 1844.85 1803.47 1849.04C1788.55 1863.44 1645.86 1950.62 1592.45 1978.37C1547.68 2001.41 1524.37 2008.75 1483.53 2012.93C1464.94 2015.03 1427.76 2020.27 1400.27 2024.72C1373.04 2029.17 1319.11 2038.07 1280.1 2044.35C1176.42 2061.37 1166.47 2062.16 1041.85 2062.68C937.906 2063.2 927.172 2063.73 902.561 2068.96C872.452 2075.25 845.485 2084.41 821.921 2095.93C804.641 2104.57 777.413 2123.16 770.082 2131.54C765.369 2136.77 765.369 2137.04 779.507 2147.51C810.14 2170.02 910.415 2231.03 927.695 2237.57C934.241 2239.93 935.812 2238.88 952.83 2221.34C974.037 2199.09 997.338 2186.52 1024.04 2182.07C1043.94 2178.66 1053.11 2179.71 1138.72 2195.68C1208.89 2208.77 1235.07 2211.39 1303.66 2211.39C1369.64 2211.39 1400.8 2208.25 1467.56 2194.9C1540.35 2179.97 1619.68 2149.6 1679.63 2113.73C1716.29 2091.48 1727.02 2083.1 1774.93 2038.33C1845.89 1971.57 1884.11 1918.16 1919.46 1836.99C1962.39 1738.29 1974.7 1670.22 1971.82 1552.14C1970.77 1517.58 1968.42 1474.64 1966.06 1456.84C1947.47 1308.65 1899.82 1185.86 1820.49 1081.65C1810.8 1069.09 1805.04 1058.88 1805.04 1054.69C1805.04 1043.95 1795.09 1027.46 1784.1 1019.86C1768.65 1009.39 1749.01 994.469 1715.76 968.287C1653.19 919.066 1584.85 882.411 1498.72 851.779C1482.48 846.019 1467.3 841.306 1464.94 841.306C1462.59 841.306 1455.52 849.684 1448.97 859.895C1434.57 882.673 1411.53 904.666 1385.87 920.375L1366.5 931.895L1359.69 973.785C1355.77 996.563 1350.53 1031.65 1347.91 1051.54L1343.46 1087.68L1350.27 1094.74C1356.29 1100.5 1358.38 1101.29 1364.4 1098.93C1373.04 1096.05 1376.97 1088.72 1380.64 1067.78C1382.99 1054.42 1405.25 976.665 1411.27 960.433C1418.6 940.535 1441.12 941.32 1441.12 961.218C1441.12 966.193 1436.14 976.665 1409.18 1027.2C1392.94 1057.83 1389.28 1078.25 1393.99 1113.86L1397.39 1140.3L1367.02 1169.36C1338.22 1196.85 1336.39 1199.21 1336.39 1208.63C1336.39 1219.89 1341.89 1231.94 1349.22 1237.17C1351.84 1239.01 1357.6 1248.17 1361.79 1257.59C1382.47 1302.63 1434.83 1327.5 1487.2 1317.29C1498.45 1315.19 1508.4 1313.62 1508.93 1314.15C1511.02 1315.98 1497.41 1342.68 1482.75 1364.94C1468.61 1386.67 1451.85 1405.78 1402.89 1456.57C1349.48 1511.82 1319.63 1553.71 1301.31 1598.48C1299.21 1603.98 1296.86 1608.43 1296.07 1608.43C1295.29 1608.43 1284.29 1601.1 1271.46 1591.93C1258.89 1583.03 1238.73 1570.46 1226.95 1563.92C1215.17 1557.37 1205.48 1550.83 1205.48 1549.52C1205.48 1547.95 1212.03 1544.02 1220.14 1540.62C1245.02 1529.88 1258.63 1508.15 1262.3 1473.59C1263.08 1464.95 1265.44 1454.74 1267.27 1450.81C1271.72 1441.91 1271.98 1427.51 1267.79 1422.01C1265.96 1419.92 1259.15 1414.42 1252.61 1410.23C1236.38 1399.24 1232.97 1394.79 1226.17 1376.98C1219.1 1357.87 1204.7 1341.64 1187.16 1333.52L1174.06 1327.5L1175.64 1287.7C1176.94 1257.07 1176.68 1247.38 1174.06 1245.81C1171.97 1244.5 1164.12 1250.53 1151.55 1263.09L1132.44 1282.2L1131.65 1259.95C1130.86 1238.22 1130.86 1237.96 1123.8 1237.17C1119.87 1236.65 1113.06 1238.22 1108.61 1240.58C1096.3 1246.86 1057.56 1285.08 1043.94 1303.94C1034.52 1317.29 1028.76 1322.26 1014.09 1329.86C991.84 1341.64 965.659 1368.87 954.139 1392.17C938.692 1423.32 935.288 1440.87 933.979 1487.73L933.193 1530.67L911.463 1537.74C899.419 1541.67 876.641 1550.83 860.932 1558.42C767.464 1602.93 691.013 1680.69 616.919 1805.84C592.047 1848.25 586.025 1857.15 582.098 1857.15C578.694 1857.15 550.68 1810.03 537.065 1781.23C499.102 1700.33 477.371 1623.09 466.113 1529.1C451.713 1408.92 464.542 1293.99 505.647 1173.81C561.938 1008.61 679.231 856.753 825.587 759.358C921.935 695.213 1025.09 653.06 1143.96 629.497C1231.4 611.955 1363.1 611.431 1447.66 628.188C1640.62 666.151 1805.57 758.572 1926.52 896.288C2019.73 1002.32 2077.33 1114.38 2112.68 1257.86C2132.31 1337.97 2139.64 1439.82 2131.53 1517.05C2123.15 1594.03 2096.18 1694.83 2065.29 1763.16C2025.75 1851.13 1974.7 1925.23 1904.01 1996.18C1862.9 2037.55 1825.2 2068.18 1774.93 2101.69C1740.11 2124.73 1709.74 2142.53 1651.88 2174.74C1630.93 2186.26 1626.75 2211.13 1643.24 2225.01C1655.81 2235.48 1665.49 2232.86 1725.19 2203.01C1994.07 2068.96 2168.97 1812.64 2195.41 1514.17C2199.34 1468.09 2196.98 1357.87 2191.22 1320.43C2173.16 1202.87 2129.17 1081.92 2068.69 981.902C2050.89 952.578 2001.14 883.72 1981.24 860.942C1961.87 838.95 1905.06 782.397 1884.9 765.379C1752.42 653.06 1574.12 576.872 1396.61 556.974C1355.5 552.523 1235.59 552.523 1198.94 557.235ZM1574.91 1490.87C1581.45 1497.42 1580.67 1508.15 1573.33 1513.13C1564.96 1518.63 1550.03 1510.51 1548.99 1499.77C1547.41 1486.16 1564.17 1480.14 1574.91 1490.87ZM1629.1 1492.44C1633.55 1498.47 1633.03 1502.92 1627.01 1508.94C1620.2 1515.75 1608.16 1515.75 1602.13 1508.94C1598.21 1504.49 1597.95 1502.65 1600.83 1496.11C1602.4 1491.66 1605.8 1487.73 1608.16 1487.21C1615.23 1485.11 1625.44 1487.99 1629.1 1492.44ZM1825.46 1898C1832.01 1902.45 1833.32 1913.97 1828.08 1920.51C1823.37 1926.27 1694.29 2019.74 1649 2050.11C1575.95 2099.33 1534.59 2113.73 1425.41 2128.4C1386.66 2133.63 1257.58 2135.46 1222.5 2131.01L1204.17 2128.92L1211.77 2124.99C1228.52 2116.09 1276.96 2100.64 1315.45 2091.74C1337.7 2086.77 1396.08 2075.51 1445.04 2066.61C1494 2057.97 1538.77 2049.59 1544.53 2048.02C1575.43 2039.64 1682.25 1976.02 1781.22 1907.42C1802.42 1892.76 1814.21 1890.14 1825.46 1898Z" fill="#EBFFEB"/>
<path d="M1558.93 1499.51C1558.93 1507.89 1563.65 1510.77 1568.62 1505.53C1573.86 1500.3 1571.24 1493.23 1564.17 1493.23C1560.24 1493.23 1558.93 1495.06 1558.93 1499.51Z" fill="#EBFFEB"/>
<path d="M1609.73 1496.89C1607.37 1503.18 1610.77 1509.46 1615.75 1508.41C1618.89 1507.89 1620.46 1505.27 1620.46 1501.08C1620.46 1493.49 1612.08 1490.35 1609.73 1496.89Z" fill="#EBFFEB"/>
<path d="M1265.44 654.369C1263.08 657.249 1261.25 668.769 1260.46 687.881L1259.15 716.943L1229.31 717.728C1212.55 717.99 1197.63 719.823 1195.8 721.394C1191.34 725.059 1191.08 781.35 1195.53 785.801C1197.37 787.633 1203.65 788.942 1209.41 788.942C1215.43 788.942 1229.31 789.728 1240.3 790.513L1260.46 792.346V820.36C1260.46 856.491 1260.99 857.015 1294.24 857.015C1329.06 857.015 1328.54 857.8 1328.54 821.669V791.561H1357.6C1373.57 791.561 1388.75 790.251 1391.63 788.942C1396.08 786.324 1396.61 783.182 1396.61 753.597C1396.61 730.557 1395.56 720.608 1393.47 719.037C1391.63 717.99 1377.23 716.943 1361.26 716.943H1332.46L1331.15 686.049C1330.11 662.485 1328.8 654.631 1325.92 652.798C1323.82 651.489 1309.95 650.18 1295.55 650.18C1274.08 650.18 1268.32 650.965 1265.44 654.369Z" fill="#EBFFEB"/>
<path d="M1102.06 847.59C1002.57 880.579 924.553 925.611 853.601 991.327C782.125 1057.3 726.882 1137.16 688.395 1230.1C666.926 1281.42 649.646 1342.16 650.955 1360.75C652.003 1376.2 657.239 1378.03 700.962 1378.03C728.453 1378.03 739.187 1379.08 746.78 1382.22C754.111 1385.36 773.224 1387.46 821.921 1389.81C858.052 1391.64 897.063 1394 908.583 1395.05C928.219 1396.88 930.313 1396.62 935.55 1391.38C942.357 1384.58 942.619 1375.15 936.597 1369.65C930.575 1364.42 918.27 1362.06 829.776 1349.23C706.199 1331.43 704.628 1331.16 699.653 1325.4C697.297 1322.79 695.988 1318.34 696.773 1315.46C699.391 1305.24 706.984 1304.98 765.631 1314.15C915.128 1336.92 945.761 1341.38 952.044 1341.38C965.397 1341.38 971.942 1325.4 961.993 1316.5C957.542 1312.31 883.448 1289.27 823.754 1273.3C801.238 1267.28 795.216 1262.31 798.358 1252.36C800.976 1243.98 810.14 1243.72 833.18 1251.05C870.881 1262.83 977.702 1291.63 984.248 1291.63C991.84 1291.63 1001.27 1283.25 1001.27 1276.44C1001.27 1267.28 986.08 1257.86 912.248 1221.2C822.969 1176.95 820.612 1175.65 820.612 1167.79C820.612 1160.72 825.063 1155.49 831.347 1155.49C833.965 1155.49 875.07 1174.86 922.721 1198.69C970.633 1222.25 1013.83 1242.41 1018.81 1243.46C1025.88 1244.77 1029.02 1243.98 1034.25 1239.01C1046.56 1227.49 1040.54 1217.8 1009.91 1198.95C998.647 1192.14 968.277 1173.55 942.357 1157.58C916.437 1141.87 893.135 1126.95 890.779 1124.59C878.474 1113.86 892.35 1097.62 906.75 1106.26C1024.31 1177.22 1063.32 1199.99 1067.24 1199.99C1074.57 1199.99 1082.95 1190.31 1081.91 1182.19C1081.12 1175.12 1081.64 1175.65 971.942 1080.61C938.43 1051.54 927.957 1041.07 927.957 1036.36C927.957 1030.6 933.979 1021.96 937.906 1021.96C941.833 1021.96 954.139 1032.17 1004.93 1076.94C1089.76 1151.56 1100.76 1160.72 1105.47 1160.72C1113.85 1160.72 1121.7 1153.13 1121.7 1145.01C1121.7 1138.99 1109.92 1123.28 1064.89 1069.09C996.553 987.138 994.197 983.734 997.862 977.974C999.171 975.356 1003.88 973.261 1008.33 972.738C1015.4 971.952 1018.55 974.832 1042.63 1004.16C1057.29 1021.96 1081.12 1050.5 1095.78 1067.78C1110.44 1085.06 1126.94 1106 1132.44 1114.12C1138.2 1122.5 1145.26 1130.61 1148.14 1132.18C1155.74 1136.11 1165.95 1132.97 1169.09 1125.64C1172.76 1117.78 1170.4 1112.29 1135.58 1051.54C1092.64 977.189 1083.21 957.552 1086.62 952.054C1090.55 945.509 1100.23 944.723 1106.52 950.483C1109.4 953.102 1115.94 963.312 1120.92 973.523C1126.15 983.472 1138.2 1005.99 1147.88 1023.27C1157.57 1040.55 1171.71 1066.73 1179.3 1081.65C1196.58 1115.69 1206.27 1121.45 1217.53 1104.43C1221.72 1098.15 1221.45 1096.32 1207.32 1052.59C1199.46 1027.98 1188.73 995.516 1183.49 980.854C1173.28 952.316 1173.54 942.891 1184.28 940.011C1193.18 937.654 1202.34 947.342 1207.05 963.836C1209.41 971.952 1215.69 993.945 1221.45 1012.8C1226.95 1031.38 1234.02 1056.26 1236.9 1067.78C1240.04 1079.3 1244.49 1090.82 1246.59 1093.17C1252.35 1099.72 1260.99 1098.93 1268.06 1091.6L1273.82 1085.58L1268.32 1038.72C1257.32 944.723 1255.23 935.822 1245.28 935.56C1238.73 935.56 1214.65 924.302 1197.63 913.306C1176.94 899.953 1148.93 871.153 1138.46 852.564C1134.27 844.971 1130.34 838.688 1129.56 838.688C1128.77 838.95 1116.46 842.877 1102.06 847.59Z" fill="#EBFFEB"/>
<path d="M1290.83 942.629C1289 944.462 1291.1 1068.3 1293.45 1078.77C1296.33 1093.17 1314.4 1097.89 1322.25 1086.37C1325.66 1080.87 1326.7 1067.78 1327.75 1010.44L1329.32 940.796H1310.99C1301.05 940.796 1291.88 941.582 1290.83 942.629Z" fill="#EBFFEB"/>
<path d="M1539.04 1006.51C1534.85 1011.22 1534.06 1015.68 1534.59 1032.17C1535.37 1067.52 1551.34 1111.76 1576.21 1146.58C1590.09 1166.22 1631.72 1205.75 1637.22 1204.71C1639.84 1204.18 1641.67 1200.52 1642.19 1195.81C1642.72 1189.78 1639.31 1182.45 1627.53 1164.39C1591.92 1109.93 1577.26 1079.3 1565.48 1033.48C1557.36 1001.54 1550.03 994.207 1539.04 1006.51Z" fill="#EBFFEB"/>
<path d="M1466.51 1086.63C1463.11 1089.77 1464.68 1101.29 1469.13 1106.26C1472.8 1110.45 1473.06 1112.29 1469.92 1121.71C1466.51 1131.66 1466.78 1132.97 1471.23 1136.11C1486.15 1147.11 1521.49 1132.18 1519.14 1115.95C1518.61 1111.24 1515.73 1109.41 1504.22 1106.79C1493.74 1104.43 1487.72 1101.29 1481.18 1094.22C1472.01 1084.8 1469.66 1083.49 1466.51 1086.63Z" fill="#EBFFEB"/>
<path d="M1221.19 1155.49C1217.79 1167.79 1210.46 1175.38 1199.98 1177.74C1190.04 1180.1 1190.3 1182.45 1201.03 1186.38C1211.5 1190.05 1219.62 1198.42 1223.29 1209.16C1225.64 1216.23 1225.9 1216.49 1227.48 1211.78C1231.93 1198.95 1236.64 1192.93 1247.11 1187.17L1258.37 1180.88L1249.73 1177.22C1236.9 1171.72 1232.19 1166.74 1230.36 1155.22C1228 1142.13 1224.86 1142.13 1221.19 1155.49Z" fill="#EBFFEB"/>
<path d="M1269.37 1286.39C1260.2 1290.06 1252.61 1301.84 1252.61 1312.31C1252.61 1324.36 1263.34 1341.9 1279.05 1355.51C1297.9 1371.75 1297.38 1371.75 1315.45 1356.3C1334.56 1340.33 1344.25 1325.14 1344.25 1311.53C1344.25 1286.39 1316.75 1275.14 1302.88 1294.77C1299.74 1299.22 1299.21 1299.22 1293.71 1292.94C1287.17 1285.61 1277.48 1282.99 1269.37 1286.39Z" fill="#EBFFEB"/>
<path d="M1725.19 1343.99C1722.83 1354.2 1714.19 1364.94 1704.77 1368.87L1696.91 1372.27L1706.86 1376.98C1714.45 1380.65 1718.12 1384.57 1722.31 1394.26C1725.19 1401.07 1728.33 1406.83 1729.38 1406.83C1730.42 1406.83 1732.78 1401.85 1734.88 1395.83C1737.49 1386.93 1740.64 1383.27 1749.54 1378.29L1761.06 1372.27L1750.85 1367.56C1740.64 1363.11 1731.73 1350.28 1731.73 1340.33C1731.73 1333.26 1727.02 1335.62 1725.19 1343.99Z" fill="#EBFFEB"/>
<path d="M1168.3 1406.04C1165.69 1408.4 1157.31 1411.54 1149.19 1413.37C1141.08 1414.95 1134.27 1417.3 1134.01 1418.61C1132.96 1423.59 1163.85 1436.68 1179.56 1437.72C1188.2 1438.51 1195.01 1437.72 1195.01 1436.41C1195.01 1435.11 1192.13 1430.13 1188.73 1425.42C1185.06 1420.44 1181.4 1413.37 1180.61 1409.19C1178.78 1400.55 1174.59 1399.5 1168.3 1406.04Z" fill="#EBFFEB"/>
<path d="M1790.38 1424.63L1782.53 1434.32L1792.21 1444.01C1801.38 1452.91 1802.42 1453.17 1803.73 1448.46C1804.78 1445.58 1808.18 1441.39 1811.85 1439.29L1818.13 1435.11L1810.28 1427.77C1805.83 1423.85 1802.42 1419.13 1802.42 1417.56C1802.42 1412.33 1798.76 1414.68 1790.38 1424.63Z" fill="#EBFFEB"/>
<path d="M752.54 1422.01C751.231 1422.54 749.922 1428.04 749.922 1434.32C749.922 1443.22 751.231 1446.63 755.158 1448.72C758.038 1450.29 781.078 1453.43 805.951 1455.53C858.576 1460.24 865.907 1458.93 867.216 1444.53C868.263 1434.06 864.074 1430.92 845.223 1427.77C828.467 1424.89 756.991 1420.71 752.54 1422.01Z" fill="#EBFFEB"/>
<path d="M730.024 1485.9C725.049 1495.85 722.955 1497.42 708.293 1502.39C699.129 1505.27 691.799 1508.68 691.799 1510.25C692.06 1511.56 697.559 1514.17 704.104 1516.01C715.362 1518.62 728.977 1528.05 728.977 1532.76C728.977 1533.81 730.024 1537.74 731.595 1541.4C734.736 1550.04 741.02 1547.95 743.115 1537.48C745.471 1525.96 754.896 1517.84 769.034 1515.74C785.005 1513.39 785.005 1507.89 769.034 1503.7C753.849 1500.04 750.969 1497.68 744.424 1484.85C741.544 1479.35 738.402 1474.9 737.355 1474.9C736.046 1474.9 732.904 1479.88 730.024 1485.9Z" fill="#EBFFEB"/>
<path d="M445.953 1990.42C439.931 1996.44 438.36 2000.37 438.36 2009.01C438.36 2029.69 458.258 2041.21 477.371 2031.52C500.934 2019.22 491.247 1982.83 464.542 1982.83C455.902 1982.83 451.975 1984.4 445.953 1990.42Z" fill="#EBFFEB"/>
<path d="M2107.7 1989.63C2102.47 1995.13 2100.89 1999.06 2100.89 2008.22C2100.89 2036.76 2137.29 2045.92 2149.33 2020.27C2161.64 1994.35 2127.86 1969.47 2107.7 1989.63Z" fill="#EBFFEB"/>
<path d="M698.606 2198.82C685.253 2207.99 684.206 2232.07 696.773 2242.02C713.529 2255.11 739.449 2243.07 739.449 2221.86C739.187 2201.18 714.838 2187.3 698.606 2198.82Z" fill="#EBFFEB"/>
<path d="M1870.5 2198.3C1861.33 2203.01 1853.48 2218.2 1855.83 2227.36C1860.55 2246.74 1883.33 2253.81 1898.77 2240.71C1902.96 2237.05 1907.41 2231.29 1908.2 2227.62C1910.55 2218.2 1903.75 2203.8 1894.32 2199.09C1884.9 2194.11 1879.14 2193.85 1870.5 2198.3Z" fill="#EBFFEB"/>
<path d="M2529.5 1839H2396.5V1653.5H2519C2534.63 1653.5 2547.23 1658.17 2556.8 1667.5C2566.6 1676.6 2571.5 1686.87 2571.5 1698.3C2571.5 1709.73 2569.05 1719.07 2564.15 1726.3C2559.25 1733.53 2552.37 1738.43 2543.5 1741C2554 1742.87 2562.98 1748 2570.45 1756.4C2578.15 1764.8 2582 1776 2582 1790C2582 1804 2577.1 1815.67 2567.3 1825C2557.73 1834.33 2545.13 1839 2529.5 1839ZM2520.75 1779.5C2520.75 1776 2519.58 1773.08 2517.25 1770.75C2514.92 1768.42 2512 1767.25 2508.5 1767.25H2457.75V1797H2508.5C2512 1797 2514.92 1795.83 2517.25 1793.5C2519.58 1791.17 2520.75 1788.25 2520.75 1784.75V1779.5ZM2510.25 1707.75C2510.25 1704.25 2509.08 1701.33 2506.75 1699C2504.42 1696.67 2501.5 1695.5 2498 1695.5H2457.75V1727H2498C2501.5 1727 2504.42 1725.83 2506.75 1723.5C2509.08 1721.17 2510.25 1718.25 2510.25 1714.75V1707.75ZM2678.11 1693.75C2668.78 1693.75 2664.11 1698.42 2664.11 1707.75V1727H2723.61V1707.75C2723.61 1698.42 2718.95 1693.75 2709.61 1693.75H2678.11ZM2777.86 1835.5C2732.83 1840.17 2692 1842.5 2655.36 1842.5C2639.5 1842.5 2626.78 1837.72 2617.21 1828.15C2607.65 1818.58 2602.86 1805.87 2602.86 1790V1706C2602.86 1688.5 2607.76 1674.85 2617.56 1665.05C2627.6 1655.02 2641.36 1650 2658.86 1650H2728.86C2746.36 1650 2760.01 1655.02 2769.81 1665.05C2779.85 1674.85 2784.86 1688.5 2784.86 1706V1770.75H2664.11V1784.75C2664.11 1788.25 2665.28 1791.17 2667.61 1793.5C2669.95 1795.83 2672.86 1797 2676.36 1797C2699.46 1797 2733.3 1795.25 2777.86 1791.75V1835.5ZM2921.23 1700.75V1839H2859.98V1700.75H2802.23V1653.5H2978.98V1700.75H2921.23ZM3071.86 1693.75C3062.53 1693.75 3057.86 1698.42 3057.86 1707.75V1727H3117.36V1707.75C3117.36 1698.42 3112.7 1693.75 3103.36 1693.75H3071.86ZM3171.61 1835.5C3126.58 1840.17 3085.75 1842.5 3049.11 1842.5C3033.25 1842.5 3020.53 1837.72 3010.96 1828.15C3001.4 1818.58 2996.61 1805.87 2996.61 1790V1706C2996.61 1688.5 3001.51 1674.85 3011.31 1665.05C3021.35 1655.02 3035.11 1650 3052.61 1650H3122.61C3140.11 1650 3153.76 1655.02 3163.56 1665.05C3173.6 1674.85 3178.61 1688.5 3178.61 1706V1770.75H3057.86V1784.75C3057.86 1788.25 3059.03 1791.17 3061.36 1793.5C3063.7 1795.83 3066.61 1797 3070.11 1797C3093.21 1797 3127.05 1795.25 3171.61 1791.75V1835.5ZM3313.23 1700.75C3300.86 1700.75 3286.86 1703.08 3271.23 1707.75V1791.75H3323.73C3333.06 1791.75 3337.73 1787.08 3337.73 1777.75V1713C3337.73 1709.5 3336.56 1706.58 3334.23 1704.25C3331.89 1701.92 3328.98 1700.75 3325.48 1700.75H3313.23ZM3271.23 1839V1898.5H3209.98V1653.5H3264.23L3267.73 1671C3278.69 1663.77 3289.89 1658.52 3301.33 1655.25C3312.99 1651.75 3322.79 1650 3330.73 1650H3346.48C3362.34 1650 3375.06 1654.78 3384.63 1664.35C3394.19 1673.92 3398.98 1686.63 3398.98 1702.5V1783C3398.98 1800.5 3393.96 1814.27 3383.93 1824.3C3374.13 1834.1 3360.48 1839 3342.98 1839H3271.23ZM3551.19 1653.5H3615.94V1839H3554.69V1737.5L3495.19 1839H3430.44V1653.5H3491.69V1755L3551.19 1653.5ZM3775.14 1721.75V1653.5H3836.39V1839H3775.14V1769H3712.14V1839H3650.89V1653.5H3712.14V1721.75H3775.14ZM3944.85 1793.5C3957.22 1793.5 3971.22 1791.17 3986.85 1786.5V1765.5H3936.1C3932.6 1765.5 3929.69 1766.67 3927.35 1769C3925.02 1771.33 3923.85 1774.25 3923.85 1777.75V1781.25C3923.85 1784.75 3925.02 1787.67 3927.35 1790C3929.69 1792.33 3932.6 1793.5 3936.1 1793.5H3944.85ZM3880.1 1657C3922.8 1652.33 3961.3 1650 3995.6 1650C4011.47 1650 4024.19 1654.78 4033.75 1664.35C4043.32 1673.92 4048.1 1686.63 4048.1 1702.5V1839H3993.85L3990.35 1821.5C3979.39 1828.73 3968.07 1834.1 3956.4 1837.6C3944.97 1840.87 3935.29 1842.5 3927.35 1842.5H3915.1C3899.24 1842.5 3886.52 1837.72 3876.95 1828.15C3867.39 1818.58 3862.6 1805.87 3862.6 1790V1774.25C3862.6 1758.38 3867.39 1745.67 3876.95 1736.1C3886.52 1726.53 3899.24 1721.75 3915.1 1721.75H3986.85V1707.75C3986.85 1704.25 3985.69 1701.33 3983.35 1699C3981.02 1696.67 3978.1 1695.5 3974.6 1695.5C3959.44 1695.5 3942.64 1696.2 3924.2 1697.6C3906 1699 3891.3 1700.05 3880.1 1700.75V1657ZM4182.76 1700.75C4170.39 1700.75 4156.39 1703.08 4140.76 1707.75V1791.75H4193.26C4202.59 1791.75 4207.26 1787.08 4207.26 1777.75V1713C4207.26 1709.5 4206.09 1706.58 4203.76 1704.25C4201.42 1701.92 4198.51 1700.75 4195.01 1700.75H4182.76ZM4140.76 1839V1898.5H4079.51V1653.5H4133.76L4137.26 1671C4148.22 1663.77 4159.42 1658.52 4170.86 1655.25C4182.52 1651.75 4192.32 1650 4200.26 1650H4216.01C4231.87 1650 4244.59 1654.78 4254.16 1664.35C4263.72 1673.92 4268.51 1686.63 4268.51 1702.5V1783C4268.51 1800.5 4263.49 1814.27 4253.46 1824.3C4243.66 1834.1 4230.01 1839 4212.51 1839H4140.76ZM4424.22 1721.75V1653.5H4485.47V1839H4424.22V1769H4361.22V1839H4299.97V1653.5H4361.22V1721.75H4424.22ZM4593.93 1793.5C4606.29 1793.5 4620.29 1791.17 4635.93 1786.5V1765.5H4585.18C4581.68 1765.5 4578.76 1766.67 4576.43 1769C4574.09 1771.33 4572.93 1774.25 4572.93 1777.75V1781.25C4572.93 1784.75 4574.09 1787.67 4576.43 1790C4578.76 1792.33 4581.68 1793.5 4585.18 1793.5H4593.93ZM4529.18 1657C4571.88 1652.33 4610.38 1650 4644.68 1650C4660.54 1650 4673.26 1654.78 4682.83 1664.35C4692.39 1673.92 4697.18 1686.63 4697.18 1702.5V1839H4642.93L4639.43 1821.5C4628.46 1828.73 4617.14 1834.1 4605.48 1837.6C4594.04 1840.87 4584.36 1842.5 4576.43 1842.5H4564.18C4548.31 1842.5 4535.59 1837.72 4526.03 1828.15C4516.46 1818.58 4511.68 1805.87 4511.68 1790V1774.25C4511.68 1758.38 4516.46 1745.67 4526.03 1736.1C4535.59 1726.53 4548.31 1721.75 4564.18 1721.75H4635.93V1707.75C4635.93 1704.25 4634.76 1701.33 4632.43 1699C4630.09 1696.67 4627.18 1695.5 4623.68 1695.5C4608.51 1695.5 4591.71 1696.2 4573.28 1697.6C4555.08 1699 4540.38 1700.05 4529.18 1700.75V1657ZM4910.58 1653.5V1839H4849.33V1781.25H4819.58L4786.33 1839H4721.58L4756.58 1777.75C4746.78 1774.25 4739.08 1768.3 4733.48 1759.9C4727.88 1751.5 4725.08 1741.12 4725.08 1728.75V1706C4725.08 1690.13 4729.86 1677.42 4739.43 1667.85C4749 1658.28 4761.71 1653.5 4777.58 1653.5H4910.58ZM4798.58 1697.25C4795.08 1697.25 4792.16 1698.42 4789.83 1700.75C4787.5 1703.08 4786.33 1706 4786.33 1709.5V1725.25C4786.33 1728.75 4787.5 1731.67 4789.83 1734C4792.16 1736.33 4795.08 1737.5 4798.58 1737.5H4849.33V1697.25H4798.58ZM2484 2007H2457.75V2077H2396.5V1891.5H2457.75V1959.75H2485.75L2505 1921.25C2512 1906.32 2522.97 1896.17 2537.9 1890.8C2543.27 1888.93 2548.4 1888 2553.3 1888C2561.23 1888 2568.47 1888.58 2575 1889.75L2583.75 1891.5V1938.75H2571.5C2563.57 1938.75 2557.73 1942.25 2554 1949.25L2536.5 1984.25L2589 2077H2522.5L2484 2007ZM2627.36 2080.5C2617.33 2080.5 2605.66 2079.33 2592.36 2077V2031.5H2606.36C2615.23 2031.5 2619.9 2026.83 2620.36 2017.5L2627.36 1891.5H2795.36V2077H2734.11V1938.75H2685.11L2679.86 2028C2678.93 2043.87 2673.68 2056.58 2664.11 2066.15C2654.55 2075.72 2642.3 2080.5 2627.36 2080.5ZM2950.99 1891.5H3015.74V2077H2954.49V1975.5L2894.99 2077H2830.24V1891.5H2891.49V1993L2950.99 1891.5ZM3174.95 1959.75V1891.5H3236.2V2077H3174.95V2007H3111.95V2077H3050.7V1891.5H3111.95V1959.75H3174.95ZM3391.91 1891.5H3456.66V2077H3395.41V1975.5L3335.91 2077H3271.16V1891.5H3332.41V1993L3391.91 1891.5ZM3579.12 2007H3552.87V2077H3491.62V1891.5H3552.87V1959.75H3580.87L3600.12 1921.25C3607.12 1906.32 3618.08 1896.17 3633.02 1890.8C3638.38 1888.93 3643.52 1888 3648.42 1888C3656.35 1888 3663.58 1888.58 3670.12 1889.75L3678.87 1891.5V1938.75H3666.62C3658.68 1938.75 3652.85 1942.25 3649.12 1949.25L3631.62 1984.25L3684.12 2077H3617.62L3579.12 2007ZM3774.98 2031.5C3787.35 2031.5 3801.35 2029.17 3816.98 2024.5V2003.5H3766.23C3762.73 2003.5 3759.81 2004.67 3757.48 2007C3755.15 2009.33 3753.98 2012.25 3753.98 2015.75V2019.25C3753.98 2022.75 3755.15 2025.67 3757.48 2028C3759.81 2030.33 3762.73 2031.5 3766.23 2031.5H3774.98ZM3710.23 1895C3752.93 1890.33 3791.43 1888 3825.73 1888C3841.6 1888 3854.31 1892.78 3863.88 1902.35C3873.45 1911.92 3878.23 1924.63 3878.23 1940.5V2077H3823.98L3820.48 2059.5C3809.51 2066.73 3798.2 2072.1 3786.53 2075.6C3775.1 2078.87 3765.41 2080.5 3757.48 2080.5H3745.23C3729.36 2080.5 3716.65 2075.72 3707.08 2066.15C3697.51 2056.58 3692.73 2043.87 3692.73 2028V2012.25C3692.73 1996.38 3697.51 1983.67 3707.08 1974.1C3716.65 1964.53 3729.36 1959.75 3745.23 1959.75H3816.98V1945.75C3816.98 1942.25 3815.81 1939.33 3813.48 1937C3811.15 1934.67 3808.23 1933.5 3804.73 1933.5C3789.56 1933.5 3772.76 1934.2 3754.33 1935.6C3736.13 1937 3721.43 1938.05 3710.23 1938.75V1895Z" fill="#EBFFEB"/>
<path d="M3544.1 1013.28C3533.82 1017.66 3524.62 1024.48 3523 1027.88C3520.83 1033.23 3516.5 1031.78 3505.14 1022.04C3474.3 995.278 3427.23 1015.72 3436.96 1051.24C3440.75 1064.38 3518.13 1141.75 3522.46 1136.4C3523.54 1134.94 3541.94 1116.93 3563.58 1096.01C3602 1059.03 3607.95 1047.35 3599.29 1026.91C3596.59 1020.58 3570.61 1004.52 3563.58 1005.01C3562.5 1005.01 3553.84 1008.9 3544.1 1013.28Z" fill="#EBFFEB"/>
<path d="M5592.78 1013.86C5573.84 1032.35 5580.87 1050.36 5622 1092.69C5643.64 1114.1 5662.58 1131.62 5664.2 1131.14C5673.4 1129.68 5740.49 1057.66 5743.74 1045.98C5753.48 1011.91 5709.65 991.963 5678.27 1016.29L5663.12 1027.49L5650.67 1016.29C5634.98 1002.18 5605.22 1001.21 5592.78 1013.86Z" fill="#EBFFEB"/>
<path d="M2539 702.727H3064V1262.73H3139V1532.73H2969L2959 1402.73H2569L2559 1532.73H2389V1262.73H2454C2473.33 1240.73 2487.67 1216.06 2497 1188.73C2507 1160.73 2512.67 1135.39 2514 1112.73L2539 702.727ZM2884 1262.73V842.727H2699L2684 1092.73C2682 1133.39 2672 1174.39 2654 1215.73C2646.67 1233.06 2638.33 1248.73 2629 1262.73H2884ZM3669.27 892.727C3669.27 852.727 3649.27 832.727 3609.27 832.727H3439.27C3399.27 832.727 3379.27 852.727 3379.27 892.727V1212.73C3379.27 1252.73 3399.27 1272.73 3439.27 1272.73H3609.27C3649.27 1272.73 3669.27 1252.73 3669.27 1212.73V892.727ZM3849.27 1212.73C3849.27 1282.73 3833.27 1333.73 3801.27 1365.73C3769.94 1397.06 3719.27 1412.73 3649.27 1412.73H3399.27C3329.27 1412.73 3278.27 1397.06 3246.27 1365.73C3214.94 1333.73 3199.27 1282.73 3199.27 1212.73V892.727C3199.27 822.727 3214.94 772.06 3246.27 740.727C3278.27 708.727 3329.27 692.727 3399.27 692.727H3649.27C3719.27 692.727 3769.94 708.727 3801.27 740.727C3833.27 772.06 3849.27 822.727 3849.27 892.727V1212.73ZM4129.74 972.727H4369.74C4439.74 972.727 4490.41 988.727 4521.74 1020.73C4553.74 1052.06 4569.74 1102.73 4569.74 1172.73V1202.73C4569.74 1272.73 4553.74 1323.73 4521.74 1355.73C4490.41 1387.06 4439.74 1402.73 4369.74 1402.73H3949.74V702.727H4504.74V842.727H4129.74V972.727ZM4389.74 1172.73C4389.74 1132.73 4369.74 1112.73 4329.74 1112.73H4129.74V1262.73H4329.74C4369.74 1262.73 4389.74 1242.73 4389.74 1202.73V1172.73ZM4659.7 702.727H5079.7C5149.7 702.727 5200.37 718.727 5231.7 750.727C5263.7 782.06 5279.7 832.727 5279.7 902.727V1002.73C5279.7 1072.73 5263.7 1123.73 5231.7 1155.73C5200.37 1187.06 5149.7 1202.73 5079.7 1202.73H4839.7V1402.73H4659.7V702.727ZM5099.7 902.727C5099.7 862.727 5079.7 842.727 5039.7 842.727H4839.7V1062.73H5039.7C5079.7 1062.73 5099.7 1042.73 5099.7 1002.73V902.727ZM5819.66 892.727C5819.66 852.727 5799.66 832.727 5759.66 832.727H5589.66C5549.66 832.727 5529.66 852.727 5529.66 892.727V1212.73C5529.66 1252.73 5549.66 1272.73 5589.66 1272.73H5759.66C5799.66 1272.73 5819.66 1252.73 5819.66 1212.73V892.727ZM5999.66 1212.73C5999.66 1282.73 5983.66 1333.73 5951.66 1365.73C5920.33 1397.06 5869.66 1412.73 5799.66 1412.73H5549.66C5479.66 1412.73 5428.66 1397.06 5396.66 1365.73C5365.33 1333.73 5349.66 1282.73 5349.66 1212.73V892.727C5349.66 822.727 5365.33 772.06 5396.66 740.727C5428.66 708.727 5479.66 692.727 5549.66 692.727H5799.66C5869.66 692.727 5920.33 708.727 5951.66 740.727C5983.66 772.06 5999.66 822.727 5999.66 892.727V1212.73Z" fill="#EBFFEB"/>
</g>
<defs>
<clipPath id="clip0_2_2">
<rect width="6252" height="2870" fill="white"/>
</clipPath>
</defs>
</svg>
