<svg width="6278" height="3000" viewBox="0 0 6278 3000" fill="none" xmlns="http://www.w3.org/2000/svg">
<g clip-path="url(#clip0_2_2)">
<rect width="6278" height="3000" fill="#707070"/>
<path d="M1204.45 492.565C954.03 525.032 729.3 640.785 578.539 815.543C412.814 1007.24 330.94 1235.92 340.257 1480.7C343.363 1556.36 350.703 1608.03 368.49 1678.89C396.44 1788.71 450.364 1901.64 517.839 1991.99C529.979 2008.08 540.99 2021.35 542.401 2021.35C545.507 2021.35 567.528 1995.94 618.064 1933.83C666.059 1875.39 682.999 1857.6 713.207 1834.17C739.464 1813.84 763.744 1800.57 804.963 1783.35C867.074 1757.66 891.072 1733.66 925.233 1664.21C953.465 1606.62 957.7 1588.55 960.241 1515.99C962.5 1449.93 964.758 1438.92 981.416 1405.88C986.497 1395.72 994.685 1382.45 999.767 1376.24C1008.52 1365.23 1008.52 1365.23 1006.26 1373.42C1000.9 1392.61 1004.85 1432.7 1011.91 1430.73C1013.88 1430.16 1025.74 1408.71 1038.73 1383.3C1060.47 1339.82 1111 1259.07 1116.65 1259.07C1117.78 1259.07 1118.06 1268.96 1117.21 1280.81C1116.37 1292.95 1114.95 1313.56 1113.83 1326.83L1112.13 1350.83L1128.79 1351.11C1148.83 1351.68 1173.96 1360.71 1183.84 1371.44C1188.08 1375.67 1194.57 1386.12 1198.81 1395.16C1205.58 1409.55 1221.11 1427.9 1235.22 1437.79C1239.74 1441.17 1240.02 1442.3 1236.64 1447.95C1232.97 1453.6 1233.53 1455.01 1241.72 1462.35C1249.62 1469.69 1250.47 1471.38 1248.21 1479.29C1241.15 1503.57 1228.17 1513.17 1188.36 1523.05C1166.9 1528.41 1158.43 1535.75 1155.89 1551C1151.66 1578.38 1170.29 1604.36 1208.69 1624.4C1244.26 1642.75 1273.9 1664.21 1297.34 1687.93L1319.64 1710.51L1341.38 1690.18C1410.83 1625.25 1482.26 1595.04 1566.96 1595.04C1654.76 1595.04 1718.28 1621.86 1762.32 1677.48C1768.25 1685.1 1773.62 1690.18 1774.46 1688.77C1775.03 1687.64 1777.29 1678.04 1778.98 1667.6C1782.93 1645.01 1779.55 1619.89 1769.1 1593.63C1765.15 1584.59 1762.61 1576.69 1762.89 1576.69C1795.07 1558.62 1802.98 1548.46 1802.7 1525.31C1802.41 1507.52 1795.92 1496.23 1786.04 1496.23C1778.13 1496.23 1776.16 1501.87 1777.01 1520.51C1777.57 1534.91 1770.51 1545.92 1759.22 1548.46C1752.44 1549.87 1747.64 1548.46 1736.63 1541.4C1720.82 1531.24 1699.93 1509.21 1699.93 1502.16C1698.8 1463.2 1694.28 1421.69 1690.33 1415.76C1685.81 1408.99 1685.25 1408.99 1677.63 1412.94C1673.11 1415.2 1664.08 1423.39 1657.58 1431.29C1645.72 1445.41 1645.16 1445.97 1633.58 1444C1627.09 1443.15 1616.08 1443.71 1609.3 1445.13L1596.88 1447.95L1584.74 1433.83C1573.45 1421.13 1560.18 1411.53 1553.69 1411.53C1546.91 1411.53 1543.81 1429.32 1545.5 1458.96C1546.63 1481.83 1546.06 1492.84 1542.68 1504.41C1537.31 1523.05 1540.7 1542.25 1551.99 1560.03L1559.05 1571.04L1547.76 1558.9C1533.64 1543.66 1527.71 1526.44 1525.74 1495.94C1523.2 1457.27 1533.36 1425.36 1555.95 1400.24C1597.45 1354.5 1616.08 1313.85 1616.08 1271.5C1615.8 1233.67 1603.09 1223.22 1575.71 1238.75C1543.52 1257.38 1518.68 1268.11 1504.56 1270.09C1486.21 1272.34 1459.96 1269.24 1448.38 1263.31C1435.68 1256.53 1418.74 1240.44 1414.78 1230.84C1411.68 1223.22 1411.96 1221.81 1420.15 1212.49C1424.95 1206.84 1428.9 1200.07 1428.9 1196.96C1428.9 1190.75 1420.99 1185.67 1411.4 1185.67C1405.18 1185.39 1405.47 1184.82 1415.07 1176.35C1420.43 1171.55 1431.16 1162.52 1438.5 1156.31C1463.34 1136.26 1466.45 1125.54 1458.26 1090.53C1448.94 1049.87 1464.47 1008.94 1504.84 969.692C1557.36 918.309 1627.66 903.629 1684.4 932.143C1690.61 935.531 1712.92 951.624 1733.81 968.281C1754.7 984.656 1779.83 1003.85 1789.71 1010.35C1822.74 1032.65 1824.72 1044.51 1804.39 1096.46C1786.89 1140.78 1754.98 1189.34 1716.87 1229.43C1695.13 1252.02 1691.74 1259.07 1698.24 1268.96C1704.73 1278.84 1718.56 1278.27 1732.68 1267.83C1758.09 1249.19 1800.16 1199.22 1814.84 1170.42C1821.61 1157.16 1822.18 1156.59 1826.13 1161.96C1836.29 1175.79 1873 1252.86 1884.57 1285.33C1940.47 1439.76 1935.11 1602.1 1870.17 1724.35C1845.61 1770.65 1801.85 1823.72 1785.19 1827.96C1772.49 1831.06 1685.53 1864.94 1624.55 1890.35C1593.21 1903.34 1554.25 1918.58 1538.16 1923.95L1508.51 1933.83H1448.94C1416.19 1933.83 1389.37 1932.98 1389.37 1931.57C1389.37 1930.44 1401.8 1922.25 1417.04 1913.22C1480 1875.67 1534.21 1830.5 1546.35 1805.37C1553.69 1790.13 1553.69 1761.33 1546.35 1746.93C1538.44 1730.84 1520.65 1714.46 1502.87 1707.41C1489.03 1701.76 1481.69 1700.91 1452.9 1700.91C1424.95 1700.91 1415.91 1702.04 1400.67 1707.69C1374.98 1716.72 1313.15 1746.65 1280.96 1765.56C1238.05 1790.97 1198.81 1808.76 1175.65 1814.12C1140.36 1822.03 1098.58 1818.64 1047.76 1803.96C1009.93 1792.95 1003.72 1791.82 965.888 1790.69C928.903 1789.56 922.127 1790.13 897.283 1796.62C869.615 1803.68 836.865 1818.36 819.926 1831.06C808.915 1839.25 795.081 1857.04 797.34 1859.58C798.469 1860.43 806.939 1857.88 816.256 1853.93C843.924 1841.79 885.99 1834.45 926.362 1834.17C965.041 1833.89 980.851 1836.43 1032.52 1850.54C1077.69 1862.97 1112.41 1866.92 1148.27 1863.25C1203.6 1858.17 1220.54 1851.96 1284.63 1814.41C1369.89 1764.44 1417.61 1744.67 1451.77 1744.67C1470.12 1744.67 1491.29 1751.17 1498.35 1759.07C1503.15 1764.44 1503.15 1764.72 1496.37 1766.41C1487.06 1768.67 1427.77 1799.73 1412.52 1810.17C1392.76 1823.72 1387.68 1841.79 1397.84 1861.84C1402.08 1870.31 1402.64 1873.41 1399.82 1875.11C1372.72 1893.46 1266.28 1948.79 1224.21 1966.3C1207.27 1973.35 1184.69 1981.54 1174.53 1984.37C1139.8 1993.68 1024.89 2060.88 1043.81 2060.88C1046.63 2060.88 1066.11 2058.33 1086.72 2055.23C1156.17 2045.07 1196.55 2031.51 1275.03 1992.27L1320.2 1969.68L1420.71 1973.35L1521.5 1977.03L1570.34 1956.98C1597.45 1945.97 1652.5 1923.1 1692.87 1906.16C1779.83 1869.46 1806.93 1859.86 1824.15 1859.3C1839.96 1859.01 1853.23 1864.38 1858.31 1873.41C1861.42 1879.62 1861.14 1881.03 1856.34 1885.55C1840.25 1901.08 1686.38 1995.09 1628.78 2025.02C1580.51 2049.86 1555.38 2057.77 1511.34 2062.29C1491.29 2064.55 1451.2 2070.19 1421.56 2074.99C1392.2 2079.79 1334.04 2089.39 1291.97 2096.17C1180.17 2114.52 1169.44 2115.36 1035.06 2115.93C922.974 2116.49 911.399 2117.06 884.861 2122.7C852.393 2129.48 823.314 2139.36 797.905 2151.78C779.271 2161.1 749.91 2181.15 742.005 2190.18C736.923 2195.83 736.923 2196.11 752.168 2207.4C785.2 2231.68 893.33 2297.46 911.964 2304.52C919.022 2307.06 920.716 2305.93 939.067 2287.02C961.935 2263.02 987.062 2249.47 1015.86 2244.67C1037.32 2241 1047.2 2242.13 1139.52 2259.35C1215.18 2273.47 1243.41 2276.29 1317.38 2276.29C1388.53 2276.29 1422.12 2272.9 1494.12 2258.5C1572.6 2242.41 1658.15 2209.66 1722.8 2170.98C1762.32 2146.98 1773.9 2137.95 1825.56 2089.67C1902.07 2017.68 1943.29 1960.09 1981.41 1872.57C2027.71 1766.13 2040.98 1692.72 2037.87 1565.4C2036.74 1528.13 2034.2 1481.83 2031.66 1462.63C2011.62 1302.84 1960.23 1170.42 1874.69 1058.06C1864.24 1044.51 1858.03 1033.5 1858.03 1028.98C1858.03 1017.41 1847.3 999.619 1835.45 991.431C1818.79 980.138 1797.61 964.046 1761.76 935.814C1694.28 882.737 1620.6 843.211 1527.71 810.179C1510.21 803.968 1493.83 798.886 1491.29 798.886C1488.75 798.886 1481.13 807.921 1474.07 818.931C1458.54 843.494 1433.7 867.209 1406.03 884.148L1385.14 896.57L1377.8 941.742C1373.56 966.305 1367.92 1004.14 1365.09 1025.59L1360.29 1064.55L1367.64 1072.18C1374.13 1078.39 1376.39 1079.23 1382.88 1076.69C1392.2 1073.59 1396.43 1065.68 1400.38 1043.1C1402.93 1028.7 1426.92 944.848 1433.42 927.344C1441.32 905.887 1465.6 906.734 1465.6 928.191C1465.6 933.555 1460.24 944.848 1431.16 999.336C1413.65 1032.37 1409.7 1054.39 1414.78 1092.79L1418.45 1121.3L1385.7 1152.64C1354.65 1182.28 1352.67 1184.82 1352.67 1194.99C1352.67 1207.13 1358.6 1220.11 1366.51 1225.76C1369.33 1227.74 1375.54 1237.62 1380.06 1247.78C1402.36 1296.34 1458.83 1323.16 1515.29 1312.15C1527.43 1309.89 1538.16 1308.2 1538.72 1308.76C1540.98 1310.74 1526.3 1339.54 1510.49 1363.53C1495.25 1386.97 1477.18 1407.58 1424.38 1462.35C1366.79 1521.92 1334.6 1567.09 1314.84 1615.37C1312.58 1621.3 1310.04 1626.1 1309.19 1626.1C1308.35 1626.1 1296.49 1618.19 1282.66 1608.31C1269.1 1598.71 1247.36 1585.16 1234.66 1578.1C1221.96 1571.04 1211.51 1563.98 1211.51 1562.57C1211.51 1560.88 1218.57 1556.64 1227.32 1552.97C1254.14 1541.4 1268.82 1517.97 1272.77 1480.7C1273.62 1471.38 1276.16 1460.37 1278.14 1456.14C1282.94 1446.54 1283.22 1431.01 1278.7 1425.08C1276.73 1422.82 1269.39 1416.89 1262.33 1412.38C1244.82 1400.52 1241.15 1395.72 1233.81 1376.52C1226.19 1355.91 1210.66 1338.41 1191.75 1329.66L1177.63 1323.16L1179.32 1280.25C1180.74 1247.22 1180.45 1236.77 1177.63 1235.08C1175.37 1233.67 1166.9 1240.16 1153.35 1253.71L1132.74 1274.32L1131.89 1250.32C1131.05 1226.89 1131.05 1226.61 1123.42 1225.76C1119.19 1225.2 1111.85 1226.89 1107.05 1229.43C1093.78 1236.21 1052 1277.43 1037.32 1297.75C1027.15 1312.15 1020.94 1317.52 1005.13 1325.7C981.133 1338.41 952.901 1367.77 940.479 1392.9C923.821 1426.49 920.151 1445.41 918.74 1495.94L917.893 1542.25L894.46 1549.87C881.473 1554.1 856.911 1563.98 839.971 1572.17C739.181 1620.17 656.743 1704.02 576.845 1838.97C550.024 1884.71 543.531 1894.3 539.296 1894.3C535.626 1894.3 505.417 1843.49 490.736 1812.43C449.799 1725.19 426.366 1641.91 414.226 1540.55C398.698 1410.97 412.532 1287.02 456.857 1157.44C517.557 979.292 644.038 815.543 801.857 710.519C905.753 641.349 1016.99 595.895 1145.16 570.486C1239.46 551.57 1381.47 551.006 1472.66 569.074C1680.73 610.011 1858.6 709.672 1989.03 858.174C2089.54 972.516 2151.65 1093.35 2189.76 1248.06C2210.94 1334.46 2218.84 1444.28 2210.09 1527.57C2201.06 1610.57 2171.98 1719.26 2138.66 1792.95C2096.03 1887.81 2040.98 1967.71 1964.75 2044.22C1920.43 2088.83 1879.77 2121.86 1825.56 2157.99C1788.02 2182.84 1755.27 2202.04 1692.87 2236.76C1670.29 2249.19 1665.77 2276.01 1683.56 2290.97C1697.11 2302.26 1707.55 2299.44 1771.92 2267.25C2061.87 2122.7 2250.46 1846.31 2278.98 1524.46C2283.21 1474.77 2280.67 1355.91 2274.46 1315.54C2254.98 1188.78 2207.55 1058.34 2142.33 950.494C2123.13 918.874 2069.49 844.623 2048.04 820.061C2027.14 796.345 1965.88 735.363 1944.14 717.012C1801.29 595.895 1609.02 513.739 1417.61 492.282C1373.28 487.483 1243.98 487.483 1204.45 492.565ZM1609.87 1499.33C1616.93 1506.39 1616.08 1517.97 1608.18 1523.33C1599.14 1529.26 1583.05 1520.51 1581.92 1508.93C1580.23 1494.25 1598.29 1487.76 1609.87 1499.33ZM1668.31 1501.03C1673.11 1507.52 1672.55 1512.32 1666.05 1518.81C1658.71 1526.15 1645.72 1526.15 1639.23 1518.81C1635 1514.01 1634.71 1512.04 1637.82 1504.98C1639.51 1500.18 1643.18 1495.94 1645.72 1495.38C1653.35 1493.12 1664.36 1496.23 1668.31 1501.03ZM1880.05 1938.35C1887.11 1943.15 1888.52 1955.57 1882.88 1962.63C1877.79 1968.84 1738.61 2069.63 1689.77 2102.38C1611 2155.45 1566.39 2170.98 1448.66 2186.79C1406.88 2192.44 1267.69 2194.41 1229.86 2189.62L1210.1 2187.36L1218.29 2183.12C1236.35 2173.52 1288.58 2156.87 1330.09 2147.27C1354.08 2141.9 1417.04 2129.76 1469.84 2120.16C1522.63 2110.85 1570.91 2101.81 1577.12 2100.12C1610.43 2091.08 1725.62 2022.48 1832.34 1948.51C1855.21 1932.7 1867.91 1929.88 1880.05 1938.35Z" fill="#EBFFEB"/>
<path d="M1592.65 1508.65C1592.65 1517.68 1597.73 1520.79 1603.09 1515.14C1608.74 1509.5 1605.92 1501.87 1598.29 1501.87C1594.06 1501.87 1592.65 1503.85 1592.65 1508.65Z" fill="#EBFFEB"/>
<path d="M1647.42 1505.83C1644.88 1512.6 1648.55 1519.38 1653.91 1518.25C1657.3 1517.68 1658.99 1514.86 1658.99 1510.34C1658.99 1502.16 1649.96 1498.77 1647.42 1505.83Z" fill="#EBFFEB"/>
<path d="M1276.16 597.306C1273.62 600.412 1271.64 612.834 1270.8 633.444L1269.39 664.782L1237.2 665.629C1219.13 665.911 1203.04 667.887 1201.06 669.581C1196.26 673.534 1195.98 734.233 1200.78 739.033C1202.76 741.009 1209.53 742.421 1215.74 742.421C1222.24 742.421 1237.2 743.268 1249.06 744.115L1270.8 746.091V776.3C1270.8 815.261 1271.36 815.825 1307.22 815.825C1344.77 815.825 1344.2 816.672 1344.2 777.711V745.244H1375.54C1392.76 745.244 1409.14 743.833 1412.24 742.421C1417.04 739.598 1417.61 736.21 1417.61 704.307C1417.61 679.463 1416.48 668.734 1414.22 667.04C1412.24 665.911 1396.71 664.782 1379.49 664.782H1348.44L1347.03 631.467C1345.9 606.058 1344.48 597.589 1341.38 595.612C1339.12 594.201 1324.16 592.789 1308.63 592.789C1285.48 592.789 1279.27 593.636 1276.16 597.306Z" fill="#EBFFEB"/>
<path d="M1099.99 805.662C992.708 841.235 908.576 889.795 832.066 960.658C754.991 1031.8 695.421 1117.91 653.919 1218.14C630.769 1273.47 612.135 1338.97 613.547 1359.02C614.676 1375.67 620.323 1377.65 667.471 1377.65C697.115 1377.65 708.69 1378.78 716.878 1382.17C724.783 1385.56 745.392 1387.81 797.905 1390.36C836.866 1392.33 878.932 1394.87 891.354 1396C912.528 1397.98 914.787 1397.7 920.433 1392.05C927.774 1384.71 928.056 1374.55 921.563 1368.62C915.069 1362.97 901.8 1360.43 806.374 1346.6C673.117 1327.4 671.424 1327.11 666.059 1320.9C663.518 1318.08 662.107 1313.28 662.954 1310.18C665.777 1299.16 673.964 1298.88 737.205 1308.76C898.412 1333.33 931.444 1338.13 938.22 1338.13C952.618 1338.13 959.677 1320.9 948.948 1311.3C944.149 1306.79 864.251 1281.94 799.881 1264.72C775.601 1258.23 769.108 1252.86 772.496 1242.14C775.319 1233.1 785.2 1232.82 810.045 1240.72C850.699 1253.43 965.888 1284.48 972.946 1284.48C981.133 1284.48 991.297 1275.45 991.297 1268.11C991.297 1258.23 974.922 1248.06 895.307 1208.54C799.034 1160.83 796.493 1159.41 796.493 1150.94C796.493 1143.32 801.293 1137.68 808.068 1137.68C810.892 1137.68 855.217 1158.57 906.6 1184.26C958.265 1209.67 1004.85 1231.41 1010.21 1232.54C1017.84 1233.95 1021.22 1233.1 1026.87 1227.74C1040.14 1215.31 1033.65 1204.87 1000.61 1184.54C988.474 1177.2 955.724 1157.16 927.774 1139.93C899.824 1122.99 874.697 1106.9 872.156 1104.36C858.887 1092.79 873.85 1075.28 889.378 1084.6C1016.14 1161.11 1058.21 1185.67 1062.44 1185.67C1070.35 1185.67 1079.38 1175.22 1078.25 1166.47C1077.41 1158.85 1077.97 1159.41 959.677 1056.93C923.539 1025.59 912.246 1014.3 912.246 1009.22C912.246 1003.01 918.74 993.69 922.974 993.69C927.209 993.69 940.478 1004.7 995.249 1052.98C1086.72 1133.44 1098.58 1143.32 1103.66 1143.32C1112.7 1143.32 1121.17 1135.13 1121.17 1126.38C1121.17 1119.89 1108.46 1102.95 1059.9 1044.51C986.215 956.141 983.674 952.47 987.627 946.259C989.038 943.436 994.12 941.178 998.92 940.613C1006.54 939.766 1009.93 942.871 1035.9 974.492C1051.71 993.69 1077.41 1024.46 1093.22 1043.1C1109.03 1061.73 1126.81 1084.32 1132.74 1093.07C1138.95 1102.1 1146.58 1110.85 1149.68 1112.55C1157.87 1116.78 1168.88 1113.4 1172.27 1105.49C1176.22 1097.02 1173.68 1091.09 1136.13 1025.59C1089.83 945.412 1079.66 924.238 1083.33 918.309C1087.57 911.251 1098.02 910.404 1104.79 916.615C1107.9 919.439 1114.95 930.449 1120.32 941.46C1125.97 952.188 1138.95 976.468 1149.4 995.101C1159.84 1013.73 1175.09 1041.97 1183.28 1058.06C1201.91 1094.76 1212.36 1100.97 1224.5 1082.62C1229.01 1075.85 1228.73 1073.87 1213.49 1026.72C1205.02 1000.18 1193.44 965.175 1187.79 949.365C1176.78 918.592 1177.07 908.428 1188.64 905.322C1198.24 902.781 1208.12 913.227 1213.2 931.014C1215.74 939.766 1222.52 963.481 1228.73 983.808C1234.66 1003.85 1242.28 1030.67 1245.39 1043.1C1248.78 1055.52 1253.58 1067.94 1255.83 1070.48C1262.05 1077.54 1271.36 1076.69 1278.99 1068.79L1285.2 1062.29L1279.27 1011.76C1267.41 910.404 1265.15 900.805 1254.42 900.523C1247.36 900.523 1221.39 888.383 1203.04 876.525C1180.74 862.127 1150.53 831.071 1139.23 811.026C1134.72 802.839 1130.48 796.063 1129.64 796.063C1128.79 796.345 1115.52 800.58 1099.99 805.662Z" fill="#EBFFEB"/>
<path d="M1303.55 908.146C1301.57 910.122 1303.83 1043.66 1306.37 1054.95C1309.48 1070.48 1328.96 1075.56 1337.43 1063.14C1341.1 1057.21 1342.23 1043.1 1343.36 981.268L1345.05 906.169H1325.29C1314.56 906.169 1304.68 907.016 1303.55 908.146Z" fill="#EBFFEB"/>
<path d="M1571.19 977.033C1566.67 982.115 1565.83 986.914 1566.39 1004.7C1567.24 1042.81 1584.46 1090.53 1611.28 1128.08C1626.24 1149.25 1671.13 1191.88 1677.06 1190.75C1679.89 1190.19 1681.86 1186.23 1682.43 1181.15C1682.99 1174.66 1679.32 1166.75 1666.62 1147.27C1628.22 1088.55 1612.41 1055.52 1599.71 1006.11C1590.95 971.669 1583.05 963.764 1571.19 977.033Z" fill="#EBFFEB"/>
<path d="M1492.99 1063.42C1489.32 1066.81 1491.01 1079.23 1495.81 1084.6C1499.76 1089.12 1500.05 1091.09 1496.66 1101.26C1492.99 1111.98 1493.27 1113.4 1498.07 1116.78C1514.16 1128.64 1552.28 1112.55 1549.73 1095.04C1549.17 1089.96 1546.06 1087.99 1533.64 1085.16C1522.35 1082.62 1515.86 1079.23 1508.8 1071.61C1498.92 1061.45 1496.37 1060.04 1492.99 1063.42Z" fill="#EBFFEB"/>
<path d="M1228.45 1137.68C1224.78 1150.94 1216.87 1159.13 1205.58 1161.67C1194.85 1164.21 1195.14 1166.75 1206.71 1170.99C1218 1174.94 1226.76 1183.98 1230.71 1195.55C1233.25 1203.17 1233.53 1203.46 1235.23 1198.38C1240.02 1184.54 1245.11 1178.05 1256.4 1171.84L1268.54 1165.06L1259.22 1161.11C1245.39 1155.18 1240.31 1149.82 1238.33 1137.39C1235.79 1123.28 1232.4 1123.28 1228.45 1137.68Z" fill="#EBFFEB"/>
<path d="M1280.4 1278.84C1270.52 1282.79 1262.33 1295.49 1262.33 1306.79C1262.33 1319.77 1273.9 1338.69 1290.84 1353.37C1311.17 1370.88 1310.61 1370.88 1330.09 1354.22C1350.7 1337 1361.14 1320.62 1361.14 1305.94C1361.14 1278.84 1331.5 1266.7 1316.53 1287.87C1313.15 1292.67 1312.58 1292.67 1306.65 1285.9C1299.59 1277.99 1289.15 1275.17 1280.4 1278.84Z" fill="#EBFFEB"/>
<path d="M1771.92 1340.95C1769.38 1351.96 1760.07 1363.53 1749.9 1367.77L1741.43 1371.44L1752.16 1376.52C1760.35 1380.47 1764.3 1384.71 1768.82 1395.15C1771.92 1402.5 1775.31 1408.71 1776.44 1408.71C1777.57 1408.71 1780.11 1403.34 1782.37 1396.85C1785.19 1387.25 1788.58 1383.3 1798.18 1377.93L1810.6 1371.44L1799.59 1366.36C1788.58 1361.56 1778.98 1347.72 1778.98 1337C1778.98 1329.37 1773.9 1331.91 1771.92 1340.95Z" fill="#EBFFEB"/>
<path d="M1171.42 1407.86C1168.6 1410.4 1159.56 1413.79 1150.81 1415.76C1142.06 1417.46 1134.72 1420 1134.44 1421.41C1133.31 1426.78 1166.62 1440.89 1183.56 1442.02C1192.88 1442.87 1200.22 1442.02 1200.22 1440.61C1200.22 1439.2 1197.11 1433.83 1193.44 1428.75C1189.49 1423.39 1185.54 1415.76 1184.69 1411.25C1182.71 1401.93 1178.2 1400.8 1171.42 1407.86Z" fill="#EBFFEB"/>
<path d="M1842.22 1427.9L1833.75 1438.35L1844.2 1448.8C1854.08 1458.4 1855.21 1458.68 1856.62 1453.6C1857.75 1450.49 1861.42 1445.97 1865.37 1443.71L1872.15 1439.2L1863.68 1431.29C1858.88 1427.06 1855.21 1421.98 1855.21 1420.28C1855.21 1414.64 1851.26 1417.18 1842.22 1427.9Z" fill="#EBFFEB"/>
<path d="M723.089 1425.08C721.677 1425.65 720.266 1431.57 720.266 1438.35C720.266 1447.95 721.677 1451.62 725.912 1453.88C729.018 1455.57 753.862 1458.96 780.683 1461.22C837.43 1466.3 845.335 1464.89 846.747 1449.36C847.876 1438.07 843.359 1434.68 823.032 1431.29C804.963 1428.19 727.888 1423.67 723.089 1425.08Z" fill="#EBFFEB"/>
<path d="M698.809 1493.97C693.445 1504.7 691.186 1506.39 675.376 1511.75C665.495 1514.86 657.59 1518.53 657.59 1520.22C657.872 1521.64 663.801 1524.46 670.859 1526.44C682.999 1529.26 697.68 1539.42 697.68 1544.5C697.68 1545.63 698.809 1549.87 700.503 1553.82C703.891 1563.14 710.667 1560.88 712.925 1549.59C715.466 1537.16 725.63 1528.41 740.875 1526.15C758.097 1523.61 758.097 1517.68 740.875 1513.17C724.5 1509.21 721.395 1506.67 714.337 1492.84C711.231 1486.91 707.843 1482.11 706.714 1482.11C705.302 1482.11 701.915 1487.47 698.809 1493.97Z" fill="#EBFFEB"/>
<path d="M392.487 2038.01C385.994 2044.5 384.3 2048.74 384.3 2058.05C384.3 2080.36 405.756 2092.78 426.366 2082.33C451.775 2069.06 441.329 2029.82 412.532 2029.82C403.215 2029.82 398.981 2031.51 392.487 2038.01Z" fill="#EBFFEB"/>
<path d="M2184.4 2037.16C2178.75 2043.09 2177.06 2047.32 2177.06 2057.21C2177.06 2087.98 2216.3 2097.86 2229.29 2070.19C2242.56 2042.24 2206.14 2015.42 2184.4 2037.16Z" fill="#EBFFEB"/>
<path d="M664.93 2262.74C650.531 2272.62 649.402 2298.59 662.954 2309.32C681.023 2323.44 708.973 2310.45 708.973 2287.58C708.69 2265.28 682.434 2250.31 664.93 2262.74Z" fill="#EBFFEB"/>
<path d="M1928.61 2262.17C1918.73 2267.25 1910.26 2283.63 1912.8 2293.51C1917.89 2314.4 1942.45 2322.03 1959.1 2307.91C1963.62 2303.96 1968.42 2297.75 1969.27 2293.79C1971.81 2283.63 1964.47 2268.1 1954.3 2263.02C1944.14 2257.66 1937.93 2257.37 1928.61 2262.17Z" fill="#EBFFEB"/>
<path d="M2542.5 2086H2409.5V1900.5H2532C2547.63 1900.5 2560.23 1905.17 2569.8 1914.5C2579.6 1923.6 2584.5 1933.87 2584.5 1945.3C2584.5 1956.73 2582.05 1966.07 2577.15 1973.3C2572.25 1980.53 2565.37 1985.43 2556.5 1988C2567 1989.87 2575.98 1995 2583.45 2003.4C2591.15 2011.8 2595 2023 2595 2037C2595 2051 2590.1 2062.67 2580.3 2072C2570.73 2081.33 2558.13 2086 2542.5 2086ZM2533.75 2026.5C2533.75 2023 2532.58 2020.08 2530.25 2017.75C2527.92 2015.42 2525 2014.25 2521.5 2014.25H2470.75V2044H2521.5C2525 2044 2527.92 2042.83 2530.25 2040.5C2532.58 2038.17 2533.75 2035.25 2533.75 2031.75V2026.5ZM2523.25 1954.75C2523.25 1951.25 2522.08 1948.33 2519.75 1946C2517.42 1943.67 2514.5 1942.5 2511 1942.5H2470.75V1974H2511C2514.5 1974 2517.42 1972.83 2519.75 1970.5C2522.08 1968.17 2523.25 1965.25 2523.25 1961.75V1954.75ZM2691.11 1940.75C2681.78 1940.75 2677.11 1945.42 2677.11 1954.75V1974H2736.61V1954.75C2736.61 1945.42 2731.95 1940.75 2722.61 1940.75H2691.11ZM2790.86 2082.5C2745.83 2087.17 2705 2089.5 2668.36 2089.5C2652.5 2089.5 2639.78 2084.72 2630.21 2075.15C2620.65 2065.58 2615.86 2052.87 2615.86 2037V1953C2615.86 1935.5 2620.76 1921.85 2630.56 1912.05C2640.6 1902.02 2654.36 1897 2671.86 1897H2741.86C2759.36 1897 2773.01 1902.02 2782.81 1912.05C2792.85 1921.85 2797.86 1935.5 2797.86 1953V2017.75H2677.11V2031.75C2677.11 2035.25 2678.28 2038.17 2680.61 2040.5C2682.95 2042.83 2685.86 2044 2689.36 2044C2712.46 2044 2746.3 2042.25 2790.86 2038.75V2082.5ZM2934.23 1947.75V2086H2872.98V1947.75H2815.23V1900.5H2991.98V1947.75H2934.23ZM3084.86 1940.75C3075.53 1940.75 3070.86 1945.42 3070.86 1954.75V1974H3130.36V1954.75C3130.36 1945.42 3125.7 1940.75 3116.36 1940.75H3084.86ZM3184.61 2082.5C3139.58 2087.17 3098.75 2089.5 3062.11 2089.5C3046.25 2089.5 3033.53 2084.72 3023.96 2075.15C3014.4 2065.58 3009.61 2052.87 3009.61 2037V1953C3009.61 1935.5 3014.51 1921.85 3024.31 1912.05C3034.35 1902.02 3048.11 1897 3065.61 1897H3135.61C3153.11 1897 3166.76 1902.02 3176.56 1912.05C3186.6 1921.85 3191.61 1935.5 3191.61 1953V2017.75H3070.86V2031.75C3070.86 2035.25 3072.03 2038.17 3074.36 2040.5C3076.7 2042.83 3079.61 2044 3083.11 2044C3106.21 2044 3140.05 2042.25 3184.61 2038.75V2082.5ZM3326.23 1947.75C3313.86 1947.75 3299.86 1950.08 3284.23 1954.75V2038.75H3336.73C3346.06 2038.75 3350.73 2034.08 3350.73 2024.75V1960C3350.73 1956.5 3349.56 1953.58 3347.23 1951.25C3344.89 1948.92 3341.98 1947.75 3338.48 1947.75H3326.23ZM3284.23 2086V2145.5H3222.98V1900.5H3277.23L3280.73 1918C3291.69 1910.77 3302.89 1905.52 3314.33 1902.25C3325.99 1898.75 3335.79 1897 3343.73 1897H3359.48C3375.34 1897 3388.06 1901.78 3397.63 1911.35C3407.19 1920.92 3411.98 1933.63 3411.98 1949.5V2030C3411.98 2047.5 3406.96 2061.27 3396.93 2071.3C3387.13 2081.1 3373.48 2086 3355.98 2086H3284.23ZM3564.19 1900.5H3628.94V2086H3567.69V1984.5L3508.19 2086H3443.44V1900.5H3504.69V2002L3564.19 1900.5ZM3788.14 1968.75V1900.5H3849.39V2086H3788.14V2016H3725.14V2086H3663.89V1900.5H3725.14V1968.75H3788.14ZM3957.85 2040.5C3970.22 2040.5 3984.22 2038.17 3999.85 2033.5V2012.5H3949.1C3945.6 2012.5 3942.69 2013.67 3940.35 2016C3938.02 2018.33 3936.85 2021.25 3936.85 2024.75V2028.25C3936.85 2031.75 3938.02 2034.67 3940.35 2037C3942.69 2039.33 3945.6 2040.5 3949.1 2040.5H3957.85ZM3893.1 1904C3935.8 1899.33 3974.3 1897 4008.6 1897C4024.47 1897 4037.19 1901.78 4046.75 1911.35C4056.32 1920.92 4061.1 1933.63 4061.1 1949.5V2086H4006.85L4003.35 2068.5C3992.39 2075.73 3981.07 2081.1 3969.4 2084.6C3957.97 2087.87 3948.29 2089.5 3940.35 2089.5H3928.1C3912.24 2089.5 3899.52 2084.72 3889.95 2075.15C3880.39 2065.58 3875.6 2052.87 3875.6 2037V2021.25C3875.6 2005.38 3880.39 1992.67 3889.95 1983.1C3899.52 1973.53 3912.24 1968.75 3928.1 1968.75H3999.85V1954.75C3999.85 1951.25 3998.69 1948.33 3996.35 1946C3994.02 1943.67 3991.1 1942.5 3987.6 1942.5C3972.44 1942.5 3955.64 1943.2 3937.2 1944.6C3919 1946 3904.3 1947.05 3893.1 1947.75V1904ZM4195.76 1947.75C4183.39 1947.75 4169.39 1950.08 4153.76 1954.75V2038.75H4206.26C4215.59 2038.75 4220.26 2034.08 4220.26 2024.75V1960C4220.26 1956.5 4219.09 1953.58 4216.76 1951.25C4214.42 1948.92 4211.51 1947.75 4208.01 1947.75H4195.76ZM4153.76 2086V2145.5H4092.51V1900.5H4146.76L4150.26 1918C4161.22 1910.77 4172.42 1905.52 4183.86 1902.25C4195.52 1898.75 4205.32 1897 4213.26 1897H4229.01C4244.87 1897 4257.59 1901.78 4267.16 1911.35C4276.72 1920.92 4281.51 1933.63 4281.51 1949.5V2030C4281.51 2047.5 4276.49 2061.27 4266.46 2071.3C4256.66 2081.1 4243.01 2086 4225.51 2086H4153.76ZM4437.22 1968.75V1900.5H4498.47V2086H4437.22V2016H4374.22V2086H4312.97V1900.5H4374.22V1968.75H4437.22ZM4606.93 2040.5C4619.29 2040.5 4633.29 2038.17 4648.93 2033.5V2012.5H4598.18C4594.68 2012.5 4591.76 2013.67 4589.43 2016C4587.09 2018.33 4585.93 2021.25 4585.93 2024.75V2028.25C4585.93 2031.75 4587.09 2034.67 4589.43 2037C4591.76 2039.33 4594.68 2040.5 4598.18 2040.5H4606.93ZM4542.18 1904C4584.88 1899.33 4623.38 1897 4657.68 1897C4673.54 1897 4686.26 1901.78 4695.83 1911.35C4705.39 1920.92 4710.18 1933.63 4710.18 1949.5V2086H4655.93L4652.43 2068.5C4641.46 2075.73 4630.14 2081.1 4618.48 2084.6C4607.04 2087.87 4597.36 2089.5 4589.43 2089.5H4577.18C4561.31 2089.5 4548.59 2084.72 4539.03 2075.15C4529.46 2065.58 4524.68 2052.87 4524.68 2037V2021.25C4524.68 2005.38 4529.46 1992.67 4539.03 1983.1C4548.59 1973.53 4561.31 1968.75 4577.18 1968.75H4648.93V1954.75C4648.93 1951.25 4647.76 1948.33 4645.43 1946C4643.09 1943.67 4640.18 1942.5 4636.68 1942.5C4621.51 1942.5 4604.71 1943.2 4586.28 1944.6C4568.08 1946 4553.38 1947.05 4542.18 1947.75V1904ZM4923.58 1900.5V2086H4862.33V2028.25H4832.58L4799.33 2086H4734.58L4769.58 2024.75C4759.78 2021.25 4752.08 2015.3 4746.48 2006.9C4740.88 1998.5 4738.08 1988.12 4738.08 1975.75V1953C4738.08 1937.13 4742.86 1924.42 4752.43 1914.85C4762 1905.28 4774.71 1900.5 4790.58 1900.5H4923.58ZM4811.58 1944.25C4808.08 1944.25 4805.16 1945.42 4802.83 1947.75C4800.5 1950.08 4799.33 1953 4799.33 1956.5V1972.25C4799.33 1975.75 4800.5 1978.67 4802.83 1981C4805.16 1983.33 4808.08 1984.5 4811.58 1984.5H4862.33V1944.25H4811.58ZM2497 2254H2470.75V2324H2409.5V2138.5H2470.75V2206.75H2498.75L2518 2168.25C2525 2153.32 2535.97 2143.17 2550.9 2137.8C2556.27 2135.93 2561.4 2135 2566.3 2135C2574.23 2135 2581.47 2135.58 2588 2136.75L2596.75 2138.5V2185.75H2584.5C2576.57 2185.75 2570.73 2189.25 2567 2196.25L2549.5 2231.25L2602 2324H2535.5L2497 2254ZM2640.36 2327.5C2630.33 2327.5 2618.66 2326.33 2605.36 2324V2278.5H2619.36C2628.23 2278.5 2632.9 2273.83 2633.36 2264.5L2640.36 2138.5H2808.36V2324H2747.11V2185.75H2698.11L2692.86 2275C2691.93 2290.87 2686.68 2303.58 2677.11 2313.15C2667.55 2322.72 2655.3 2327.5 2640.36 2327.5ZM2963.99 2138.5H3028.74V2324H2967.49V2222.5L2907.99 2324H2843.24V2138.5H2904.49V2240L2963.99 2138.5ZM3187.95 2206.75V2138.5H3249.2V2324H3187.95V2254H3124.95V2324H3063.7V2138.5H3124.95V2206.75H3187.95ZM3404.91 2138.5H3469.66V2324H3408.41V2222.5L3348.91 2324H3284.16V2138.5H3345.41V2240L3404.91 2138.5ZM3592.12 2254H3565.87V2324H3504.62V2138.5H3565.87V2206.75H3593.87L3613.12 2168.25C3620.12 2153.32 3631.08 2143.17 3646.02 2137.8C3651.38 2135.93 3656.52 2135 3661.42 2135C3669.35 2135 3676.58 2135.58 3683.12 2136.75L3691.87 2138.5V2185.75H3679.62C3671.68 2185.75 3665.85 2189.25 3662.12 2196.25L3644.62 2231.25L3697.12 2324H3630.62L3592.12 2254ZM3787.98 2278.5C3800.35 2278.5 3814.35 2276.17 3829.98 2271.5V2250.5H3779.23C3775.73 2250.5 3772.81 2251.67 3770.48 2254C3768.15 2256.33 3766.98 2259.25 3766.98 2262.75V2266.25C3766.98 2269.75 3768.15 2272.67 3770.48 2275C3772.81 2277.33 3775.73 2278.5 3779.23 2278.5H3787.98ZM3723.23 2142C3765.93 2137.33 3804.43 2135 3838.73 2135C3854.6 2135 3867.31 2139.78 3876.88 2149.35C3886.45 2158.92 3891.23 2171.63 3891.23 2187.5V2324H3836.98L3833.48 2306.5C3822.51 2313.73 3811.2 2319.1 3799.53 2322.6C3788.1 2325.87 3778.41 2327.5 3770.48 2327.5H3758.23C3742.36 2327.5 3729.65 2322.72 3720.08 2313.15C3710.51 2303.58 3705.73 2290.87 3705.73 2275V2259.25C3705.73 2243.38 3710.51 2230.67 3720.08 2221.1C3729.65 2211.53 3742.36 2206.75 3758.23 2206.75H3829.98V2192.75C3829.98 2189.25 3828.81 2186.33 3826.48 2184C3824.15 2181.67 3821.23 2180.5 3817.73 2180.5C3802.56 2180.5 3785.76 2181.2 3767.33 2182.6C3749.13 2184 3734.43 2185.05 3723.23 2185.75V2142Z" fill="#EBFFEB"/>
<path d="M3558.84 1294.66C3548.51 1299.24 3539.28 1306.36 3537.65 1309.92C3535.47 1315.51 3531.13 1313.99 3519.72 1303.81C3488.75 1275.84 3441.48 1297.2 3451.26 1334.33C3455.06 1348.07 3532.76 1428.95 3537.1 1423.35C3538.19 1421.82 3556.66 1403 3578.4 1381.13C3616.98 1342.47 3622.95 1330.27 3614.26 1308.9C3611.54 1302.29 3585.46 1285.5 3578.4 1286.01C3577.31 1286.01 3568.62 1290.08 3558.84 1294.66Z" fill="#EBFFEB"/>
<path d="M5616.04 1295.26C5597.02 1314.59 5604.08 1333.41 5645.38 1377.67C5667.11 1400.05 5686.13 1418.36 5687.76 1417.85C5696.99 1416.32 5764.37 1341.04 5767.63 1328.83C5777.41 1293.23 5733.4 1272.37 5701.88 1297.81L5686.67 1309.5L5674.17 1297.81C5658.42 1283.05 5628.53 1282.04 5616.04 1295.26Z" fill="#EBFFEB"/>
<path d="M2552 993H3077V1553H3152V1823H2982L2972 1693H2582L2572 1823H2402V1553H2467C2486.33 1531 2500.67 1506.33 2510 1479C2520 1451 2525.67 1425.67 2527 1403L2552 993ZM2897 1553V1133H2712L2697 1383C2695 1423.67 2685 1464.67 2667 1506C2659.67 1523.33 2651.33 1539 2642 1553H2897ZM3682.27 1183C3682.27 1143 3662.27 1123 3622.27 1123H3452.27C3412.27 1123 3392.27 1143 3392.27 1183V1503C3392.27 1543 3412.27 1563 3452.27 1563H3622.27C3662.27 1563 3682.27 1543 3682.27 1503V1183ZM3862.27 1503C3862.27 1573 3846.27 1624 3814.27 1656C3782.94 1687.33 3732.27 1703 3662.27 1703H3412.27C3342.27 1703 3291.27 1687.33 3259.27 1656C3227.94 1624 3212.27 1573 3212.27 1503V1183C3212.27 1113 3227.94 1062.33 3259.27 1031C3291.27 999 3342.27 983 3412.27 983H3662.27C3732.27 983 3782.94 999 3814.27 1031C3846.27 1062.33 3862.27 1113 3862.27 1183V1503ZM4142.74 1263H4382.74C4452.74 1263 4503.41 1279 4534.74 1311C4566.74 1342.33 4582.74 1393 4582.74 1463V1493C4582.74 1563 4566.74 1614 4534.74 1646C4503.41 1677.33 4452.74 1693 4382.74 1693H3962.74V993H4517.74V1133H4142.74V1263ZM4402.74 1463C4402.74 1423 4382.74 1403 4342.74 1403H4142.74V1553H4342.74C4382.74 1553 4402.74 1533 4402.74 1493V1463ZM4672.7 993H5092.7C5162.7 993 5213.37 1009 5244.7 1041C5276.7 1072.33 5292.7 1123 5292.7 1193V1293C5292.7 1363 5276.7 1414 5244.7 1446C5213.37 1477.33 5162.7 1493 5092.7 1493H4852.7V1693H4672.7V993ZM5112.7 1193C5112.7 1153 5092.7 1133 5052.7 1133H4852.7V1353H5052.7C5092.7 1353 5112.7 1333 5112.7 1293V1193ZM5832.66 1183C5832.66 1143 5812.66 1123 5772.66 1123H5602.66C5562.66 1123 5542.66 1143 5542.66 1183V1503C5542.66 1543 5562.66 1563 5602.66 1563H5772.66C5812.66 1563 5832.66 1543 5832.66 1503V1183ZM6012.66 1503C6012.66 1573 5996.66 1624 5964.66 1656C5933.33 1687.33 5882.66 1703 5812.66 1703H5562.66C5492.66 1703 5441.66 1687.33 5409.66 1656C5378.33 1624 5362.66 1573 5362.66 1503V1183C5362.66 1113 5378.33 1062.33 5409.66 1031C5441.66 999 5492.66 983 5562.66 983H5812.66C5882.66 983 5933.33 999 5964.66 1031C5996.66 1062.33 6012.66 1113 6012.66 1183V1503Z" fill="#EBFFEB"/>
</g>
<defs>
<clipPath id="clip0_2_2">
<rect width="6278" height="3000" fill="white"/>
</clipPath>
</defs>
</svg>
